STARTFONT 2.1
FONT -DEC-Terminal-Medium-R-Normal--39-280-100-100-C-220-iso8859-4
SIZE 28 100 100
FONTBOUNDINGBOX 22 40 0 -10

STARTPROPERTIES 24
FOUNDRY "Monotype"
FAMILY_NAME "VT"
WEIGHT_NAME "Regular"
SLANT "R"
SETWIDTH_NAME "Normal"
ADD_STYLE_NAME ""
PIXEL_SIZE 39
POINT_SIZE 280
RESOLUTION_X 100
RESOLUTION_Y 100
SPACING "C"
AVERAGE_WIDTH 220
CHARSET_REGISTRY "iso8859"
CHARSET_ENCODING "4"
FACE_NAME "VT ISO Latin4"
_DEC_DEVICE_FONTNAMES "PS=vt-isolatin4"
COPYRIGHT "Copyright (c) 1993 Monotype Typography Ltd."
CAP_HEIGHT 22
X_HEIGHT 17
WEIGHT 10
QUAD_WIDTH 22
DEFAULT_CHAR 160
FONT_DESCENT 10
FONT_ASCENT 30
ENDPROPERTIES

CHARS 191

STARTCHAR space
ENCODING 32
SWIDTH 568 0
DWIDTH 22 0
BBX 22 40 0 -10
BITMAP
000000
000000
000000
000000
000000
000000
000000
000000
000000
000000
000000
000000
000000
000000
000000
000000
000000
000000
000000
000000
000000
000000
000000
000000
000000
000000
000000
000000
000000
000000
000000
000000
000000
000000
000000
000000
000000
000000
000000
000000
ENDCHAR

STARTCHAR exclam
ENCODING 33
SWIDTH 568 0
DWIDTH 22 0
BBX 22 40 0 -10
BITMAP
000000
000000
000000
000000
000000
000000
000000
000000
007800
007800
007800
007800
007800
007800
007800
007800
007800
007800
007800
007800
007800
000000
000000
000000
000000
000000
007800
00FC00
00FC00
007800
000000
000000
000000
000000
000000
000000
000000
000000
000000
000000
ENDCHAR

STARTCHAR quotedbl
ENCODING 34
SWIDTH 568 0
DWIDTH 22 0
BBX 22 40 0 -10
BITMAP
000000
000000
000000
000000
078780
078780
078780
078780
078780
078780
078780
078780
078780
078780
000000
000000
000000
000000
000000
000000
000000
000000
000000
000000
000000
000000
000000
000000
000000
000000
000000
000000
000000
000000
000000
000000
000000
000000
000000
000000
ENDCHAR

STARTCHAR numbersign
ENCODING 35
SWIDTH 568 0
DWIDTH 22 0
BBX 22 40 0 -10
BITMAP
000000
000000
000000
000000
000000
000000
000000
000000
078780
078780
078780
078780
078780
078780
078780
078780
078780
078780
FFFFFC
FFFFFC
0F0F00
0F0F00
0F0F00
0F0F00
FFFFFC
FFFFFC
0F0F00
0F0F00
0F0F00
0F0F00
0F0F00
0F0F00
0F0F00
0F0F00
0F0F00
0F0F00
000000
000000
000000
000000
ENDCHAR

STARTCHAR dollar
ENCODING 36
SWIDTH 568 0
DWIDTH 22 0
BBX 22 40 0 -10
BITMAP
000000
000000
000000
000000
001800
001800
001800
001800
01F9E0
07FDE0
0F8FE0
0F03E0
1E01E0
1E01E0
1E0000
1F0000
0FC000
0FF800
03FF00
007FC0
000FC0
0003E0
0001E0
0001E0
1E01E0
1E01E0
1F03C0
1F87C0
1EFF80
1E7E00
006000
006000
006000
006000
006000
006000
000000
000000
000000
000000
ENDCHAR

STARTCHAR percent
ENCODING 37
SWIDTH 568 0
DWIDTH 22 0
BBX 22 40 0 -10
BITMAP
000000
000000
000000
000000
000000
000000
000000
000000
0F8000
1FC000
38E000
306000
306000
306000
306000
38E1C0
1FC7C0
0F8F00
003C00
00F000
03C7C0
0F8FE0
0E1C70
001830
001830
001830
001830
001C70
000FE0
0007C0
000000
000000
000000
000000
000000
000000
000000
000000
000000
000000
ENDCHAR

STARTCHAR ampersand
ENCODING 38
SWIDTH 568 0
DWIDTH 22 0
BBX 22 40 0 -10
BITMAP
000000
000000
000000
000000
000000
000000
000000
000000
00FB00
01FB00
03C700
038700
038000
038000
038000
038000
01C000
01C000
07E3C0
07E3C0
0F7300
0F7300
0F3B00
0F3B00
0F1F00
0F1F00
0F0F00
0F0F00
07F3C0
03F3C0
000000
000000
000000
000000
000000
000000
000000
000000
000000
000000
ENDCHAR

STARTCHAR quoteright
ENCODING 39
SWIDTH 568 0
DWIDTH 22 0
BBX 22 40 0 -10
BITMAP
000000
000000
000000
000000
007C00
007C00
007800
00F800
00F000
00F000
01E000
01E000
00C000
00C000
000000
000000
000000
000000
000000
000000
000000
000000
000000
000000
000000
000000
000000
000000
000000
000000
000000
000000
000000
000000
000000
000000
000000
000000
000000
000000
ENDCHAR

STARTCHAR parenleft
ENCODING 40
SWIDTH 568 0
DWIDTH 22 0
BBX 22 40 0 -10
BITMAP
000000
000000
000000
000000
000000
000000
000600
000E00
000C00
001C00
003800
003800
007000
007000
00F000
00F000
00E000
01E000
01E000
01E000
01E000
01E000
01E000
01E000
01E000
00E000
00F000
00F000
007000
007000
003800
003800
001C00
001C00
000E00
000600
000000
000000
000000
000000
ENDCHAR

STARTCHAR parenright
ENCODING 41
SWIDTH 568 0
DWIDTH 22 0
BBX 22 40 0 -10
BITMAP
000000
000000
000000
000000
000000
000000
00C000
00E000
007000
007000
003800
003800
001C00
001C00
001E00
001E00
000E00
000F00
000F00
000F00
000F00
000F00
000F00
000F00
000F00
000E00
001E00
001E00
001C00
001C00
003800
003800
007000
006000
00E000
00C000
000000
000000
000000
000000
ENDCHAR

STARTCHAR asterisk
ENCODING 42
SWIDTH 568 0
DWIDTH 22 0
BBX 22 40 0 -10
BITMAP
000000
000000
000000
000000
000000
000000
000000
000000
000000
000000
000000
000000
007800
007800
007800
007800
1E79E0
1E79E0
07FF80
07FF80
01FE00
01FE00
01FE00
01CE00
038700
078780
070380
070380
000000
000000
000000
000000
000000
000000
000000
000000
000000
000000
000000
000000
ENDCHAR

STARTCHAR plus
ENCODING 43
SWIDTH 568 0
DWIDTH 22 0
BBX 22 40 0 -10
BITMAP
000000
000000
000000
000000
000000
000000
000000
000000
000000
000000
007800
007800
007800
007800
007800
007800
007800
007800
1FFFE0
1FFFE0
1FFFE0
1FFFE0
007800
007800
007800
007800
007800
007800
007800
007800
000000
000000
000000
000000
000000
000000
000000
000000
000000
000000
ENDCHAR

STARTCHAR comma
ENCODING 44
SWIDTH 568 0
DWIDTH 22 0
BBX 22 40 0 -10
BITMAP
000000
000000
000000
000000
000000
000000
000000
000000
000000
000000
000000
000000
000000
000000
000000
000000
000000
000000
000000
000000
000000
000000
000000
000000
007C00
007C00
007800
007800
00F000
00F000
00F000
00E000
01E000
01E000
00C000
00C000
000000
000000
000000
000000
ENDCHAR

STARTCHAR minus
ENCODING 45
SWIDTH 568 0
DWIDTH 22 0
BBX 22 40 0 -10
BITMAP
000000
000000
000000
000000
000000
000000
000000
000000
000000
000000
000000
000000
000000
000000
000000
000000
000000
000000
3FFFF0
3FFFF0
3FFFF0
3FFFF0
000000
000000
000000
000000
000000
000000
000000
000000
000000
000000
000000
000000
000000
000000
000000
000000
000000
000000
ENDCHAR

STARTCHAR period
ENCODING 46
SWIDTH 568 0
DWIDTH 22 0
BBX 22 40 0 -10
BITMAP
000000
000000
000000
000000
000000
000000
000000
000000
000000
000000
000000
000000
000000
000000
000000
000000
000000
000000
000000
000000
000000
000000
000000
000000
007800
00FC00
00FC00
00FC00
00FC00
007800
000000
000000
000000
000000
000000
000000
000000
000000
000000
000000
ENDCHAR

STARTCHAR slash
ENCODING 47
SWIDTH 568 0
DWIDTH 22 0
BBX 22 40 0 -10
BITMAP
000000
000000
000000
000000
000000
000000
000070
0000F0
0000E0
0001E0
0001C0
000380
000380
000700
000F00
000E00
001E00
001C00
003800
003800
007000
00F000
00E000
01E000
01C000
03C000
038000
070000
070000
0E0000
1E0000
1C0000
000000
000000
000000
000000
000000
000000
000000
000000
ENDCHAR

STARTCHAR zero
ENCODING 48
SWIDTH 568 0
DWIDTH 22 0
BBX 22 40 0 -10
BITMAP
000000
000000
000000
000000
000000
000000
000000
000000
00FC00
03FF00
07CF80
078780
0F03C0
0F03C0
0F03C0
1E01E0
1E01E0
1E01E0
1E01E0
1E01E0
1E01E0
1E01E0
1E01E0
0F03C0
0F03C0
0F03C0
078780
07CF80
03FF00
00FC00
000000
000000
000000
000000
000000
000000
000000
000000
000000
000000
ENDCHAR

STARTCHAR one
ENCODING 49
SWIDTH 568 0
DWIDTH 22 0
BBX 22 40 0 -10
BITMAP
000000
000000
000000
000000
000000
000000
000000
000000
007800
01F800
1FF800
1FF800
007800
007800
007800
007800
007800
007800
007800
007800
007800
007800
007800
007800
007800
007800
007800
007800
1FFFE0
1FFFE0
000000
000000
000000
000000
000000
000000
000000
000000
000000
000000
ENDCHAR

STARTCHAR two
ENCODING 50
SWIDTH 568 0
DWIDTH 22 0
BBX 22 40 0 -10
BITMAP
000000
000000
000000
000000
000000
000000
000000
000000
03FF00
0FFFC0
0F07C0
1E03E0
1E01E0
1E01E0
0001E0
0001E0
0003C0
0003C0
000780
000F80
001F00
003E00
007C00
00F800
01F000
03E000
07C1E0
0F81E0
1FFFE0
1FFFE0
000000
000000
000000
000000
000000
000000
000000
000000
000000
000000
ENDCHAR

STARTCHAR three
ENCODING 51
SWIDTH 568 0
DWIDTH 22 0
BBX 22 40 0 -10
BITMAP
000000
000000
000000
000000
000000
000000
000000
000000
03FF00
0FFFC0
1E03C0
1C01E0
0001E0
0001E0
0001E0
0001E0
0001C0
0003C0
007F00
007F80
0003C0
0001E0
0001E0
0001E0
0001E0
0001E0
1C01E0
1E03C0
0FFFC0
03FF00
000000
000000
000000
000000
000000
000000
000000
000000
000000
000000
ENDCHAR

STARTCHAR four
ENCODING 52
SWIDTH 568 0
DWIDTH 22 0
BBX 22 40 0 -10
BITMAP
000000
000000
000000
000000
000000
000000
000000
000000
003F80
003F80
007F80
007F80
00E780
00E780
01C780
01C780
038780
038780
070780
070780
0E0780
0E0780
1FFFE0
1FFFE0
000780
000780
000780
000780
007FE0
007FE0
000000
000000
000000
000000
000000
000000
000000
000000
000000
000000
ENDCHAR

STARTCHAR five
ENCODING 53
SWIDTH 568 0
DWIDTH 22 0
BBX 22 40 0 -10
BITMAP
000000
000000
000000
000000
000000
000000
000000
000000
1FFF00
1FFF00
1E0000
1E0000
1E0000
1E0000
1E0000
1E0000
1FFE00
1FFF80
1E07C0
1C03C0
0001E0
0001E0
0001E0
0001E0
0001E0
0001E0
1C03C0
1F07C0
0FFF80
03FE00
000000
000000
000000
000000
000000
000000
000000
000000
000000
000000
ENDCHAR

STARTCHAR six
ENCODING 54
SWIDTH 568 0
DWIDTH 22 0
BBX 22 40 0 -10
BITMAP
000000
000000
000000
000000
000000
000000
000000
000000
003FC0
00FFC0
01F000
03C000
078000
070000
0F0000
0E0000
0E3F00
1EFF80
1FC3C0
1F03C0
1E01E0
1E01E0
1E01E0
1E01E0
1E01E0
1E01E0
0F03C0
0F83C0
07FF80
01FE00
000000
000000
000000
000000
000000
000000
000000
000000
000000
000000
ENDCHAR

STARTCHAR seven
ENCODING 55
SWIDTH 568 0
DWIDTH 22 0
BBX 22 40 0 -10
BITMAP
000000
000000
000000
000000
000000
000000
000000
000000
1FFFE0
1FFFE0
1E01E0
1E01E0
0001C0
0003C0
0003C0
000380
000780
000780
000700
000F00
000F00
000E00
001E00
001E00
001C00
003C00
003C00
003800
007800
007800
000000
000000
000000
000000
000000
000000
000000
000000
000000
000000
ENDCHAR

STARTCHAR eight
ENCODING 56
SWIDTH 568 0
DWIDTH 22 0
BBX 22 40 0 -10
BITMAP
000000
000000
000000
000000
000000
000000
000000
000000
01FE00
07FF80
0F87C0
0F03C0
1E01E0
1E01E0
1E01E0
1E01E0
0F03C0
0F87C0
03FF00
07FF80
0F87C0
0F03C0
1E01E0
1E01E0
1E01E0
1E01E0
0F03C0
0F87C0
07FF80
01FE00
000000
000000
000000
000000
000000
000000
000000
000000
000000
000000
ENDCHAR

STARTCHAR nine
ENCODING 57
SWIDTH 568 0
DWIDTH 22 0
BBX 22 40 0 -10
BITMAP
000000
000000
000000
000000
000000
000000
000000
000000
01FE00
07FF80
0F07C0
0F03C0
1E01E0
1E01E0
1E01E0
1E01E0
1E01E0
1E01E0
0F03E0
0F0FE0
07FDE0
03F1C0
0001C0
0003C0
000380
000780
000F00
003E00
0FFC00
0FF000
000000
000000
000000
000000
000000
000000
000000
000000
000000
000000
ENDCHAR

STARTCHAR colon
ENCODING 58
SWIDTH 568 0
DWIDTH 22 0
BBX 22 40 0 -10
BITMAP
000000
000000
000000
000000
000000
000000
000000
000000
000000
000000
000000
000000
007800
00FC00
00FC00
00FC00
00FC00
007800
000000
000000
000000
000000
000000
000000
007800
00FC00
00FC00
00FC00
00FC00
007800
000000
000000
000000
000000
000000
000000
000000
000000
000000
000000
ENDCHAR

STARTCHAR semicolon
ENCODING 59
SWIDTH 568 0
DWIDTH 22 0
BBX 22 40 0 -10
BITMAP
000000
000000
000000
000000
000000
000000
000000
000000
000000
000000
000000
000000
003C00
007E00
007E00
007E00
007E00
003C00
000000
000000
000000
000000
000000
000000
007C00
007C00
007800
007800
00F000
00F000
00F000
00E000
01E000
01E000
00C000
00C000
000000
000000
000000
000000
ENDCHAR

STARTCHAR less
ENCODING 60
SWIDTH 568 0
DWIDTH 22 0
BBX 22 40 0 -10
BITMAP
000000
000000
000000
000000
000000
000000
000000
000000
000000
000000
000060
0001E0
0007E0
001FE0
007F80
01FE00
07F800
1FE000
3F8000
3F8000
1FE000
07F800
01FE00
007F80
001FE0
0007E0
0001E0
000060
000000
000000
000000
000000
000000
000000
000000
000000
000000
000000
000000
000000
ENDCHAR

STARTCHAR equal
ENCODING 61
SWIDTH 568 0
DWIDTH 22 0
BBX 22 40 0 -10
BITMAP
000000
000000
000000
000000
000000
000000
000000
000000
000000
000000
000000
000000
000000
000000
1FFFE0
1FFFE0
1FFFE0
1FFFE0
000000
000000
000000
000000
1FFFE0
1FFFE0
1FFFE0
1FFFE0
000000
000000
000000
000000
000000
000000
000000
000000
000000
000000
000000
000000
000000
000000
ENDCHAR

STARTCHAR greater
ENCODING 62
SWIDTH 568 0
DWIDTH 22 0
BBX 22 40 0 -10
BITMAP
000000
000000
000000
000000
000000
000000
000000
000000
000000
000000
300000
3C0000
3F0000
3FC000
0FF000
03FC00
00FF00
003FC0
000FE0
000FE0
003FC0
00FF00
03FC00
0FF000
3FC000
3F0000
3C0000
300000
000000
000000
000000
000000
000000
000000
000000
000000
000000
000000
000000
000000
ENDCHAR

STARTCHAR question
ENCODING 63
SWIDTH 568 0
DWIDTH 22 0
BBX 22 40 0 -10
BITMAP
000000
000000
000000
000000
000000
000000
000000
000000
07FF80
1FFFC0
1E03E0
1E01E0
0001E0
0001E0
0003E0
0007C0
001F80
007F00
00FC00
01F000
01E000
01E000
000000
000000
01E000
03F000
03F000
03F000
03F000
01E000
000000
000000
000000
000000
000000
000000
000000
000000
000000
000000
ENDCHAR

STARTCHAR at
ENCODING 64
SWIDTH 568 0
DWIDTH 22 0
BBX 22 40 0 -10
BITMAP
000000
000000
000000
000000
000000
000000
03FE00
0FFF80
1F07C0
3C01C0
3C01E0
3801E0
7801E0
7801E0
781FE0
787FE0
78F1E0
78E1E0
79E1E0
79E1E0
79E1E0
79E1E0
79E1E0
78F1E0
78FFF8
787FF8
780000
780000
3C0000
3C0000
3E00E0
1F83E0
0FFF80
03FE00
000000
000000
000000
000000
000000
000000
ENDCHAR

STARTCHAR A
ENCODING 65
SWIDTH 568 0
DWIDTH 22 0
BBX 22 40 0 -10
BITMAP
000000
000000
000000
000000
000000
000000
000000
000000
00FC00
00FC00
01FE00
01FE00
01CE00
03CF00
03CF00
03CF00
078780
078780
078780
0F03C0
0F03C0
0F03C0
1FFFE0
1FFFE0
1E01E0
3C00F0
3C00F0
3C00F0
FF03FC
FF03FC
000000
000000
000000
000000
000000
000000
000000
000000
000000
000000
ENDCHAR

STARTCHAR B
ENCODING 66
SWIDTH 568 0
DWIDTH 22 0
BBX 22 40 0 -10
BITMAP
000000
000000
000000
000000
000000
000000
000000
000000
3FFF00
3FFF80
0F07C0
0F03C0
0F03C0
0F03C0
0F03C0
0F03C0
0F0380
0F0700
0FFFC0
0FFFE0
0F01F0
0F00F0
0F00F0
0F00F0
0F00F0
0F00F0
0F00F0
0F01F0
3FFFE0
3FFFC0
000000
000000
000000
000000
000000
000000
000000
000000
000000
000000
ENDCHAR

STARTCHAR C
ENCODING 67
SWIDTH 568 0
DWIDTH 22 0
BBX 22 40 0 -10
BITMAP
000000
000000
000000
000000
000000
000000
000000
000000
00FE30
03FFB0
0FC3F0
0F00F0
1E00F0
1E0070
1C0070
3C0070
3C0000
3C0000
3C0000
3C0000
3C0000
3C0000
3C0000
1C0000
1E0000
1E0030
0F0070
0FC1E0
03FFC0
00FF00
000000
000000
000000
000000
000000
000000
000000
000000
000000
000000
ENDCHAR

STARTCHAR D
ENCODING 68
SWIDTH 568 0
DWIDTH 22 0
BBX 22 40 0 -10
BITMAP
000000
000000
000000
000000
000000
000000
000000
000000
3FFC00
3FFF00
0F0FC0
0F03C0
0F01E0
0F01E0
0F00F0
0F00F0
0F00F0
0F00F0
0F00F0
0F00F0
0F00F0
0F00F0
0F00F0
0F00F0
0F01E0
0F01E0
0F03C0
0F0FC0
3FFF00
3FFC00
000000
000000
000000
000000
000000
000000
000000
000000
000000
000000
ENDCHAR

STARTCHAR E
ENCODING 69
SWIDTH 568 0
DWIDTH 22 0
BBX 22 40 0 -10
BITMAP
000000
000000
000000
000000
000000
000000
000000
000000
3FFFF0
3FFFF0
03C030
03C030
03C030
03C030
03C300
03C300
03C300
03C300
03FF00
03FF00
03C300
03C300
03C030
03C030
03C030
03C030
03C030
03C030
3FFFF0
3FFFF0
000000
000000
000000
000000
000000
000000
000000
000000
000000
000000
ENDCHAR

STARTCHAR F
ENCODING 70
SWIDTH 568 0
DWIDTH 22 0
BBX 22 40 0 -10
BITMAP
000000
000000
000000
000000
000000
000000
000000
000000
3FFFF0
3FFFF0
03C030
03C030
03C030
03C030
03C000
03C300
03C300
03C300
03FF00
03FF00
03C300
03C300
03C300
03C000
03C000
03C000
03C000
03C000
3FFC00
3FFC00
000000
000000
000000
000000
000000
000000
000000
000000
000000
000000
ENDCHAR

STARTCHAR G
ENCODING 71
SWIDTH 568 0
DWIDTH 22 0
BBX 22 40 0 -10
BITMAP
000000
000000
000000
000000
000000
000000
000000
000000
01FC60
07FF60
1F87E0
1E01E0
3C01E0
3C00E0
3800E0
7800E0
780000
780000
780000
780000
781FF8
781FF8
7801E0
3801E0
3C01E0
3C01E0
1E01E0
1F81E0
07FFC0
01FF80
000000
000000
000000
000000
000000
000000
000000
000000
000000
000000
ENDCHAR

STARTCHAR H
ENCODING 72
SWIDTH 568 0
DWIDTH 22 0
BBX 22 40 0 -10
BITMAP
000000
000000
000000
000000
000000
000000
000000
000000
3FCFF0
3FCFF0
0F03C0
0F03C0
0F03C0
0F03C0
0F03C0
0F03C0
0F03C0
0F03C0
0FFFC0
0FFFC0
0F03C0
0F03C0
0F03C0
0F03C0
0F03C0
0F03C0
0F03C0
0F03C0
3FCFF0
3FCFF0
000000
000000
000000
000000
000000
000000
000000
000000
000000
000000
ENDCHAR

STARTCHAR I
ENCODING 73
SWIDTH 568 0
DWIDTH 22 0
BBX 22 40 0 -10
BITMAP
000000
000000
000000
000000
000000
000000
000000
000000
1FFFE0
1FFFE0
007800
007800
007800
007800
007800
007800
007800
007800
007800
007800
007800
007800
007800
007800
007800
007800
007800
007800
1FFFE0
1FFFE0
000000
000000
000000
000000
000000
000000
000000
000000
000000
000000
ENDCHAR

STARTCHAR J
ENCODING 74
SWIDTH 568 0
DWIDTH 22 0
BBX 22 40 0 -10
BITMAP
000000
000000
000000
000000
000000
000000
000000
000000
03FFF0
03FFF0
000F00
000F00
000F00
000F00
000F00
000F00
000F00
000F00
000F00
000F00
000F00
300F00
300F00
300F00
380F00
380F00
3C0F00
1E0F00
1FFE00
07FC00
000000
000000
000000
000000
000000
000000
000000
000000
000000
000000
ENDCHAR

STARTCHAR K
ENCODING 75
SWIDTH 568 0
DWIDTH 22 0
BBX 22 40 0 -10
BITMAP
000000
000000
000000
000000
000000
000000
000000
000000
3FCFF0
3FCFF0
0F03C0
0F03C0
0F0F00
0F0F00
0F3C00
0F3C00
0FF800
0FF800
0FFC00
0FFC00
0F1E00
0F1E00
0F0F00
0F0F00
0F0780
0F0780
0F03C0
0F03C0
3FC3F0
3FC3F0
000000
000000
000000
000000
000000
000000
000000
000000
000000
000000
ENDCHAR

STARTCHAR L
ENCODING 76
SWIDTH 568 0
DWIDTH 22 0
BBX 22 40 0 -10
BITMAP
000000
000000
000000
000000
000000
000000
000000
000000
3FFC00
3FFC00
03C000
03C000
03C000
03C000
03C000
03C000
03C000
03C000
03C000
03C000
03C000
03C000
03C030
03C030
03C030
03C030
03C030
03C030
3FFFF0
3FFFF0
000000
000000
000000
000000
000000
000000
000000
000000
000000
000000
ENDCHAR

STARTCHAR M
ENCODING 77
SWIDTH 568 0
DWIDTH 22 0
BBX 22 40 0 -10
BITMAP
000000
000000
000000
000000
000000
000000
000000
000000
FF03FC
FF03FC
3F87F0
3F87F0
3D86F0
3D86F0
3DCEF0
3CCCF0
3CCCF0
3CCCF0
3CFCF0
3C78F0
3C78F0
3C78F0
3C30F0
3C30F0
3C30F0
3C30F0
3C00F0
3C00F0
FF03FC
FF03FC
000000
000000
000000
000000
000000
000000
000000
000000
000000
000000
ENDCHAR

STARTCHAR N
ENCODING 78
SWIDTH 568 0
DWIDTH 22 0
BBX 22 40 0 -10
BITMAP
000000
000000
000000
000000
000000
000000
000000
000000
7F07F8
7F07F8
1F81E0
1F81E0
1EC1E0
1EC1E0
1E61E0
1E61E0
1E61E0
1E31E0
1E31E0
1E19E0
1E19E0
1E19E0
1E0DE0
1E0DE0
1E07E0
1E07E0
1E03E0
1E03E0
7F81E0
7F81E0
000000
000000
000000
000000
000000
000000
000000
000000
000000
000000
ENDCHAR

STARTCHAR O
ENCODING 79
SWIDTH 568 0
DWIDTH 22 0
BBX 22 40 0 -10
BITMAP
000000
000000
000000
000000
000000
000000
000000
000000
01FE00
03FF00
0F87C0
0F03C0
1E01E0
1E01E0
1E01E0
3C00F0
3C00F0
3C00F0
3C00F0
3C00F0
3C00F0
3C00F0
3C00F0
1E01E0
1E01E0
1E01E0
0F03C0
0F87C0
03FF00
01FE00
000000
000000
000000
000000
000000
000000
000000
000000
000000
000000
ENDCHAR

STARTCHAR P
ENCODING 80
SWIDTH 568 0
DWIDTH 22 0
BBX 22 40 0 -10
BITMAP
000000
000000
000000
000000
000000
000000
000000
000000
3FFF80
3FFFE0
03C1E0
03C0F0
03C0F0
03C0F0
03C0F0
03C0F0
03C0F0
03C0F0
03C0F0
03C1E0
03FFE0
03FF80
03C000
03C000
03C000
03C000
03C000
03C000
3FFE00
3FFE00
000000
000000
000000
000000
000000
000000
000000
000000
000000
000000
ENDCHAR

STARTCHAR Q
ENCODING 81
SWIDTH 568 0
DWIDTH 22 0
BBX 22 40 0 -10
BITMAP
000000
000000
000000
000000
000000
000000
000000
000000
07F800
0FFC00
3E1F00
3C0F00
780780
780780
780780
780780
780780
780780
780780
780780
780780
780780
780780
3C0F00
3C0F00
3C0F00
1E1E00
1F3E00
07F800
03F000
018000
018000
03F818
03FE78
079FF0
0707E0
000000
000000
000000
000000
ENDCHAR

STARTCHAR R
ENCODING 82
SWIDTH 568 0
DWIDTH 22 0
BBX 22 40 0 -10
BITMAP
000000
000000
000000
000000
000000
000000
000000
000000
7FFF80
7FFFC0
1E03E0
1E01E0
1E01E0
1E01E0
1E01E0
1E01E0
1E03C0
1E07C0
1FFF80
1FFF00
1E0F00
1E0F80
1E07C0
1E07C0
1E03E0
1E03E0
1E01F0
1E01F0
7F80F8
7F80F8
000000
000000
000000
000000
000000
000000
000000
000000
000000
000000
ENDCHAR

STARTCHAR S
ENCODING 83
SWIDTH 568 0
DWIDTH 22 0
BBX 22 40 0 -10
BITMAP
000000
000000
000000
000000
000000
000000
000000
000000
01F9E0
07FDE0
0F8FE0
0F03E0
1E01E0
1E01E0
1E0000
1F0000
0FC000
0FF800
03FF00
007FC0
000FC0
0003E0
0001E0
0001E0
1E01E0
1E01E0
1F03C0
1F87C0
1EFF80
1E7E00
000000
000000
000000
000000
000000
000000
000000
000000
000000
000000
ENDCHAR

STARTCHAR T
ENCODING 84
SWIDTH 568 0
DWIDTH 22 0
BBX 22 40 0 -10
BITMAP
000000
000000
000000
000000
000000
000000
000000
000000
7FFFF8
7FFFF8
607818
607818
607818
607818
607818
607818
607818
607818
007800
007800
007800
007800
007800
007800
007800
007800
007800
007800
07FF80
07FF80
000000
000000
000000
000000
000000
000000
000000
000000
000000
000000
ENDCHAR

STARTCHAR U
ENCODING 85
SWIDTH 568 0
DWIDTH 22 0
BBX 22 40 0 -10
BITMAP
000000
000000
000000
000000
000000
000000
000000
000000
7F87F8
7F87F8
1E01E0
1E01E0
1E01E0
1E01E0
1E01E0
1E01E0
1E01E0
1E01E0
1E01E0
1E01E0
1E01E0
1E01E0
1E01E0
1E01E0
1E01E0
1E01E0
0E01C0
0F03C0
07FF80
03FF00
000000
000000
000000
000000
000000
000000
000000
000000
000000
000000
ENDCHAR

STARTCHAR V
ENCODING 86
SWIDTH 568 0
DWIDTH 22 0
BBX 22 40 0 -10
BITMAP
000000
000000
000000
000000
000000
000000
000000
000000
FF03FC
FF03FC
3C00F0
3C00F0
1E01E0
1E01E0
0E01C0
0F03C0
0F0380
070380
078780
078700
038700
03CF00
01CE00
01CE00
00FC00
00FC00
007800
007800
003000
003000
000000
000000
000000
000000
000000
000000
000000
000000
000000
000000
ENDCHAR

STARTCHAR W
ENCODING 87
SWIDTH 568 0
DWIDTH 22 0
BBX 22 40 0 -10
BITMAP
000000
000000
000000
000000
000000
000000
000000
000000
FF87FC
FF87FC
3C00F0
3C00F0
3C00F0
3C00F0
3C30F0
3C30F0
3C30F0
3C30F0
1C78E0
1C78E0
1CFCE0
1CFCE0
1DCEE0
1DCEE0
1F87E0
1F87E0
0F03C0
0F03C0
0E01C0
0E01C0
000000
000000
000000
000000
000000
000000
000000
000000
000000
000000
ENDCHAR

STARTCHAR X
ENCODING 88
SWIDTH 568 0
DWIDTH 22 0
BBX 22 40 0 -10
BITMAP
000000
000000
000000
000000
000000
000000
000000
000000
3FCFF0
3FCFF0
0F03C0
0F03C0
078780
078780
03CF00
03CF00
01FE00
01FE00
00FC00
00FC00
01FE00
01FE00
03CF00
03CF00
078780
078780
0F03C0
0F03C0
3FCFF0
3FCFF0
000000
000000
000000
000000
000000
000000
000000
000000
000000
000000
ENDCHAR

STARTCHAR Y
ENCODING 89
SWIDTH 568 0
DWIDTH 22 0
BBX 22 40 0 -10
BITMAP
000000
000000
000000
000000
000000
000000
000000
000000
7F87F8
7F87F8
1E01E0
1E01E0
0F03C0
0F03C0
078780
078780
03CF00
03CF00
01FE00
01FE00
00FC00
00FC00
007800
007800
007800
007800
007800
007800
07FF80
07FF80
000000
000000
000000
000000
000000
000000
000000
000000
000000
000000
ENDCHAR

STARTCHAR Z
ENCODING 90
SWIDTH 568 0
DWIDTH 22 0
BBX 22 40 0 -10
BITMAP
000000
000000
000000
000000
000000
000000
000000
000000
1FFFE0
1FFFE0
1803E0
1803C0
1807C0
180F80
000F00
001F00
001E00
003E00
007C00
007800
00F800
01F000
01E000
03E000
07C060
078060
0F8060
1F0060
1FFFE0
1FFFE0
000000
000000
000000
000000
000000
000000
000000
000000
000000
000000
ENDCHAR

STARTCHAR bracketleft
ENCODING 91
SWIDTH 568 0
DWIDTH 22 0
BBX 22 40 0 -10
BITMAP
000000
000000
000000
000000
000000
000000
01FE00
01FE00
01E000
01E000
01E000
01E000
01E000
01E000
01E000
01E000
01E000
01E000
01E000
01E000
01E000
01E000
01E000
01E000
01E000
01E000
01E000
01E000
01E000
01E000
01E000
01FE00
01FE00
000000
000000
000000
000000
000000
000000
000000
ENDCHAR

STARTCHAR backslash
ENCODING 92
SWIDTH 568 0
DWIDTH 22 0
BBX 22 40 0 -10
BITMAP
000000
000000
000000
000000
000000
000000
700000
780000
380000
3C0000
1C0000
0E0000
0E0000
070000
078000
038000
03C000
01C000
00E000
00E000
007000
007800
003800
003C00
001C00
001E00
000E00
000700
000700
000380
0003C0
0001C0
000000
000000
000000
000000
000000
000000
000000
000000
ENDCHAR

STARTCHAR bracketright
ENCODING 93
SWIDTH 568 0
DWIDTH 22 0
BBX 22 40 0 -10
BITMAP
000000
000000
000000
000000
000000
000000
01FE00
01FE00
001E00
001E00
001E00
001E00
001E00
001E00
001E00
001E00
001E00
001E00
001E00
001E00
001E00
001E00
001E00
001E00
001E00
001E00
001E00
001E00
001E00
001E00
001E00
01FE00
01FE00
000000
000000
000000
000000
000000
000000
000000
ENDCHAR

STARTCHAR asciicircum
ENCODING 94
SWIDTH 568 0
DWIDTH 22 0
BBX 22 40 0 -10
BITMAP
000000
000000
000000
000000
000000
003000
007800
00FC00
01FE00
03CF00
078780
0F03C0
0E01C0
000000
000000
000000
000000
000000
000000
000000
000000
000000
000000
000000
000000
000000
000000
000000
000000
000000
000000
000000
000000
000000
000000
000000
000000
000000
000000
000000
ENDCHAR

STARTCHAR underscore
ENCODING 95
SWIDTH 568 0
DWIDTH 22 0
BBX 22 40 0 -10
BITMAP
000000
000000
000000
000000
000000
000000
000000
000000
000000
000000
000000
000000
000000
000000
000000
000000
000000
000000
000000
000000
000000
000000
000000
000000
000000
000000
3FFFFC
3FFFFC
3FFFFC
3FFFFC
000000
000000
000000
000000
000000
000000
000000
000000
000000
000000
ENDCHAR

STARTCHAR quoteleft
ENCODING 96
SWIDTH 568 0
DWIDTH 22 0
BBX 22 40 0 -10
BITMAP
000000
000000
000000
000000
078000
07C000
07E000
03F000
00F800
007C00
001E00
000F00
000700
000300
000000
000000
000000
000000
000000
000000
000000
000000
000000
000000
000000
000000
000000
000000
000000
000000
000000
000000
000000
000000
000000
000000
000000
000000
000000
000000
ENDCHAR

STARTCHAR a
ENCODING 97
SWIDTH 568 0
DWIDTH 22 0
BBX 22 40 0 -10
BITMAP
000000
000000
000000
000000
000000
000000
000000
000000
000000
000000
000000
000000
03FF80
07FF80
0F03C0
0E03C0
0003C0
0003C0
03FFC0
0FFFC0
1F03C0
1E03C0
3C03C0
3C03C0
3C03C0
3C03C0
3C07C0
1E1FC0
1FFBF0
07E3F0
000000
000000
000000
000000
000000
000000
000000
000000
000000
000000
ENDCHAR

STARTCHAR b
ENCODING 98
SWIDTH 568 0
DWIDTH 22 0
BBX 22 40 0 -10
BITMAP
000000
000000
000000
000000
000000
000000
3F0000
3F0000
0F0000
0F0000
0F0000
0F0000
0F3F00
0F7FC0
0FC3E0
0F81E0
0F01F0
0F00F0
0F00F0
0F00F0
0F00F0
0F00F0
0F00F0
0F00F0
0F00F0
0F01F0
0F81E0
0FC3E0
3F7FC0
3F3F80
000000
000000
000000
000000
000000
000000
000000
000000
000000
000000
ENDCHAR

STARTCHAR c
ENCODING 99
SWIDTH 568 0
DWIDTH 22 0
BBX 22 40 0 -10
BITMAP
000000
000000
000000
000000
000000
000000
000000
000000
000000
000000
000000
000000
00FE60
03FFE0
07C3E0
0F81E0
0F00E0
0F00E0
1E00E0
1E0000
1E0000
1E0000
1E0000
1E0000
0F0000
0F0060
0F80E0
07C3C0
01FF80
007E00
000000
000000
000000
000000
000000
000000
000000
000000
000000
000000
ENDCHAR

STARTCHAR d
ENCODING 100
SWIDTH 568 0
DWIDTH 22 0
BBX 22 40 0 -10
BITMAP
000000
000000
000000
000000
000000
000000
003FC0
003FC0
0003C0
0003C0
0003C0
0003C0
03F3C0
0FFBC0
1F0FC0
1E07C0
3E03C0
3C03C0
3C03C0
3C03C0
3C03C0
3C03C0
3C03C0
3C03C0
3C03C0
3E03C0
1E07C0
1F0FC0
0FFBF0
07F3F0
000000
000000
000000
000000
000000
000000
000000
000000
000000
000000
ENDCHAR

STARTCHAR e
ENCODING 101
SWIDTH 568 0
DWIDTH 22 0
BBX 22 40 0 -10
BITMAP
000000
000000
000000
000000
000000
000000
000000
000000
000000
000000
000000
000000
01FE00
07FF80
0F87C0
1F01E0
1E01E0
3E00F0
3C00F0
3C00F0
3FFFF0
3FFFF0
3C0000
3C0000
3E0000
1E0000
1F0070
0FC1F0
07FFC0
01FF00
000000
000000
000000
000000
000000
000000
000000
000000
000000
000000
ENDCHAR

STARTCHAR f
ENCODING 102
SWIDTH 568 0
DWIDTH 22 0
BBX 22 40 0 -10
BITMAP
000000
000000
000000
000000
000000
000000
00FFF0
01FFF0
03C000
03C000
03C000
03C000
03C000
3FFFC0
3FFFC0
03C000
03C000
03C000
03C000
03C000
03C000
03C000
03C000
03C000
03C000
03C000
03C000
03C000
3FFFC0
3FFFC0
000000
000000
000000
000000
000000
000000
000000
000000
000000
000000
ENDCHAR

STARTCHAR g
ENCODING 103
SWIDTH 568 0
DWIDTH 22 0
BBX 22 40 0 -10
BITMAP
000000
000000
000000
000000
000000
000000
000000
000000
000000
000000
000000
000000
03F3F0
0FFBF0
1F0FC0
1E07C0
3E03C0
3C03C0
3C03C0
3C03C0
3C03C0
3C03C0
3C03C0
3C03C0
3C03C0
3E03C0
1E07C0
1F0FC0
0FFBC0
07F3C0
0003C0
0003C0
0003C0
0003C0
3FFF80
3FFF00
000000
000000
000000
000000
ENDCHAR

STARTCHAR h
ENCODING 104
SWIDTH 568 0
DWIDTH 22 0
BBX 22 40 0 -10
BITMAP
000000
000000
000000
000000
000000
000000
3F0000
3F0000
0F0000
0F0000
0F0000
0F0000
0F3F00
0F7F80
0FC7C0
0F03C0
0F03C0
0F03C0
0F03C0
0F03C0
0F03C0
0F03C0
0F03C0
0F03C0
0F03C0
0F03C0
0F03C0
0F03C0
3FCFF0
3FCFF0
000000
000000
000000
000000
000000
000000
000000
000000
000000
000000
ENDCHAR

STARTCHAR i
ENCODING 105
SWIDTH 570 0
DWIDTH 22 0
BBX 22 40 0 -10
BITMAP
000000
000000
000000
000000
007800
007800
007800
007800
007800
000000
000000
000000
000000
07F800
07F800
007800
007800
007800
007800
007800
007800
007800
007800
007800
007800
007800
007800
007800
1FFFE0
1FFFE0
000000
000000
000000
000000
000000
000000
000000
000000
000000
000000
ENDCHAR

STARTCHAR j
ENCODING 106
SWIDTH 568 0
DWIDTH 22 0
BBX 22 40 0 -10
BITMAP
000000
000000
000000
000000
000780
000780
000780
000780
000000
000000
000000
000000
07FF80
07FF80
000780
000780
000780
000780
000780
000780
000780
000780
000780
000780
000780
000780
000780
000780
000780
000780
000780
000780
000780
000780
07FF00
07FE00
000000
000000
000000
000000
ENDCHAR

STARTCHAR k
ENCODING 107
SWIDTH 568 0
DWIDTH 22 0
BBX 22 40 0 -10
BITMAP
000000
000000
000000
000000
000000
000000
3F0000
3F0000
0F0000
0F0000
0F0000
0F0000
0F1FF0
0F1FF0
0F03C0
0F0780
0F0F00
0F1E00
0F3C00
0F7C00
0FFC00
0FDE00
0F0E00
0F0F00
0F0700
0F0780
0F0380
0F03C0
3F0FF0
3F0FF0
000000
000000
000000
000000
000000
000000
000000
000000
000000
000000
ENDCHAR

STARTCHAR l
ENCODING 108
SWIDTH 568 0
DWIDTH 22 0
BBX 22 40 0 -10
BITMAP
000000
000000
000000
000000
000000
000000
0FF000
0FF000
00F000
00F000
00F000
00F000
00F000
00F000
00F000
00F000
00F000
00F000
00F000
00F000
00F000
00F000
00F000
00F000
00F000
00F000
00F000
00F000
3FFFE0
3FFFE0
000000
000000
000000
000000
000000
000000
000000
000000
000000
000000
ENDCHAR

STARTCHAR m
ENCODING 109
SWIDTH 568 0
DWIDTH 22 0
BBX 22 40 0 -10
BITMAP
000000
000000
000000
000000
000000
000000
000000
000000
000000
000000
000000
000000
73E7C0
77F7F0
7CFCF0
787878
787878
787878
787878
787878
787878
787878
787878
787878
787878
787878
787878
787878
787878
787878
000000
000000
000000
000000
000000
000000
000000
000000
000000
000000
ENDCHAR

STARTCHAR n
ENCODING 110
SWIDTH 568 0
DWIDTH 22 0
BBX 22 40 0 -10
BITMAP
000000
000000
000000
000000
000000
000000
000000
000000
000000
000000
000000
3F3F00
3F7F80
0FC7C0
0F83C0
0F03C0
0F03C0
0F03C0
0F03C0
0F03C0
0F03C0
0F03C0
0F03C0
0F03C0
0F03C0
0F03C0
0F03C0
0F03C0
3F8FF0
3F8FF0
000000
000000
000000
000000
000000
000000
000000
000000
000000
000000
ENDCHAR

STARTCHAR o
ENCODING 111
SWIDTH 568 0
DWIDTH 22 0
BBX 22 40 0 -10
BITMAP
000000
000000
000000
000000
000000
000000
000000
000000
000000
000000
000000
000000
01FE00
07FF80
0F87C0
1F03E0
1E01E0
1E01E0
3C00F0
3C00F0
3C00F0
3C00F0
3C00F0
3C00F0
1E01E0
1E01E0
1F03E0
0F87C0
07FF80
01FE00
000000
000000
000000
000000
000000
000000
000000
000000
000000
000000
ENDCHAR

STARTCHAR p
ENCODING 112
SWIDTH 568 0
DWIDTH 22 0
BBX 22 40 0 -10
BITMAP
000000
000000
000000
000000
000000
000000
000000
000000
000000
000000
000000
000000
3F3F00
3F7FC0
0FC3E0
0F01E0
0F01F0
0F00F0
0F00F0
0F00F0
0F00F0
0F00F0
0F00F0
0F00F0
0F00F0
0F01F0
0F81E0
0FC3E0
0F7FC0
0F3F80
0F0000
0F0000
0F0000
0F0000
3FF000
3FF000
000000
000000
000000
000000
ENDCHAR

STARTCHAR q
ENCODING 113
SWIDTH 568 0
DWIDTH 22 0
BBX 22 40 0 -10
BITMAP
000000
000000
000000
000000
000000
000000
000000
000000
000000
000000
000000
000000
03F3F0
0FFBF0
1F0FC0
1E07C0
3E03C0
3C03C0
3C03C0
3C03C0
3C03C0
3C03C0
3C03C0
3C03C0
3C03C0
3E03C0
1E07C0
1F0FC0
0FFBC0
07F3C0
0003C0
0003C0
0003C0
0003C0
003FF0
003FF0
000000
000000
000000
000000
ENDCHAR

STARTCHAR r
ENCODING 114
SWIDTH 568 0
DWIDTH 22 0
BBX 22 40 0 -10
BITMAP
000000
000000
000000
000000
000000
000000
000000
000000
000000
000000
000000
000000
3FC7E0
3FDFF0
03F8F0
03E0F0
03C000
03C000
03C000
03C000
03C000
03C000
03C000
03C000
03C000
03C000
03C000
03C000
3FFF00
3FFF00
000000
000000
000000
000000
000000
000000
000000
000000
000000
000000
ENDCHAR

STARTCHAR s
ENCODING 115
SWIDTH 568 0
DWIDTH 22 0
BBX 22 40 0 -10
BITMAP
000000
000000
000000
000000
000000
000000
000000
000000
000000
000000
000000
000000
03F9E0
0FFDE0
0F07E0
1E03E0
1E01E0
1E01E0
1E0000
1F8000
0FFF80
07FFC0
0007E0
0001E0
1E01E0
1E01E0
1F01E0
1F83C0
1EFF80
1E7E00
000000
000000
000000
000000
000000
000000
000000
000000
000000
000000
ENDCHAR

STARTCHAR t
ENCODING 116
SWIDTH 568 0
DWIDTH 22 0
BBX 22 40 0 -10
BITMAP
000000
000000
000000
000000
000000
000000
03C000
03C000
03C000
03C000
03C000
03C000
3FFFC0
3FFFC0
03C000
03C000
03C000
03C000
03C000
03C000
03C000
03C000
03C000
03C000
03C000
03C000
03C070
03E1F0
01FFC0
00FF00
000000
000000
000000
000000
000000
000000
000000
000000
000000
000000
ENDCHAR

STARTCHAR u
ENCODING 117
SWIDTH 568 0
DWIDTH 22 0
BBX 22 40 0 -10
BITMAP
000000
000000
000000
000000
000000
000000
000000
000000
000000
000000
000000
000000
3F0FC0
3F0FC0
0F03C0
0F03C0
0F03C0
0F03C0
0F03C0
0F03C0
0F03C0
0F03C0
0F03C0
0F03C0
0F03C0
0F03C0
0F07C0
0F8FC0
07FBF0
03F3F0
000000
000000
000000
000000
000000
000000
000000
000000
000000
000000
ENDCHAR

STARTCHAR v
ENCODING 118
SWIDTH 568 0
DWIDTH 22 0
BBX 22 40 0 -10
BITMAP
000000
000000
000000
000000
000000
000000
000000
000000
000000
000000
000000
000000
7F87F8
7F87F8
1E01E0
1E01E0
0E01C0
0F03C0
070380
078780
078780
038700
03CF00
01CE00
01FE00
00FC00
00FC00
007800
007800
007800
000000
000000
000000
000000
000000
000000
000000
000000
000000
000000
ENDCHAR

STARTCHAR w
ENCODING 119
SWIDTH 568 0
DWIDTH 22 0
BBX 22 40 0 -10
BITMAP
000000
000000
000000
000000
000000
000000
000000
000000
000000
000000
000000
000000
FF03FC
FF03FC
700038
700038
783078
783078
383070
387870
3C78F0
3C78F0
1CFCE0
1CFCE0
1FCFE0
1FCFE0
0F87C0
0F87C0
0F03C0
0F03C0
000000
000000
000000
000000
000000
000000
000000
000000
000000
000000
ENDCHAR

STARTCHAR x
ENCODING 120
SWIDTH 568 0
DWIDTH 22 0
BBX 22 40 0 -10
BITMAP
000000
000000
000000
000000
000000
000000
000000
000000
000000
000000
000000
000000
3FCFF0
3FCFF0
0F03C0
078780
038700
03CF00
01CE00
01FE00
00FC00
00FC00
01FE00
01CE00
03CF00
078780
078780
0F03C0
3FCFF0
3FCFF0
000000
000000
000000
000000
000000
000000
000000
000000
000000
000000
ENDCHAR

STARTCHAR y
ENCODING 121
SWIDTH 568 0
DWIDTH 22 0
BBX 22 40 0 -10
BITMAP
000000
000000
000000
000000
000000
000000
000000
000000
000000
000000
000000
000000
7F87F8
7F87F8
1E01E0
1E01E0
0E01C0
0F03C0
070380
078780
078780
038700
03CF00
01CE00
01EE00
00FC00
00FC00
007800
007800
007800
007000
00F000
00E000
01E000
07F800
07F800
000000
000000
000000
000000
ENDCHAR

STARTCHAR z
ENCODING 122
SWIDTH 568 0
DWIDTH 22 0
BBX 22 40 0 -10
BITMAP
000000
000000
000000
000000
000000
000000
000000
000000
000000
000000
000000
000000
0FFFC0
0FFFC0
0C03C0
0C03C0
0C0780
0C0F80
001F00
001E00
003C00
007800
00F800
00F000
01E0C0
03C0C0
07C0C0
0F80C0
0FFFC0
0FFFC0
000000
000000
000000
000000
000000
000000
000000
000000
000000
000000
ENDCHAR

STARTCHAR braceleft
ENCODING 123
SWIDTH 568 0
DWIDTH 22 0
BBX 22 40 0 -10
BITMAP
000000
000000
000000
000000
001F80
003F80
007800
007800
007800
007800
007800
007800
007800
007800
007800
00F000
00F000
07C000
07C000
00F000
00F000
007800
007800
007800
007800
007800
007800
007800
007800
007800
003F80
001F80
000000
000000
000000
000000
000000
000000
000000
000000
ENDCHAR

STARTCHAR bar
ENCODING 124
SWIDTH 568 0
DWIDTH 22 0
BBX 22 40 0 -10
BITMAP
000000
000000
000000
007800
007800
007800
007800
007800
007800
007800
007800
007800
007800
007800
007800
007800
007800
007800
007800
007800
007800
007800
007800
007800
007800
007800
007800
007800
007800
007800
007800
007800
007800
007800
007800
007800
007800
000000
000000
000000
ENDCHAR

STARTCHAR braceright
ENCODING 125
SWIDTH 568 0
DWIDTH 22 0
BBX 22 40 0 -10
BITMAP
000000
000000
000000
000000
07E000
07F000
007800
007800
007800
007800
007800
007800
007800
007800
007800
003C00
003C00
000F80
000F80
003C00
003C00
007800
007800
007800
007800
007800
007800
007800
007800
007800
07F000
07E000
000000
000000
000000
000000
000000
000000
000000
000000
ENDCHAR

STARTCHAR asciitilde
ENCODING 126
SWIDTH 568 0
DWIDTH 22 0
BBX 22 40 0 -10
BITMAP
000000
000000
000000
000000
03C0C0
07F8C0
0FFFC0
0FFFC0
0C3F80
0C0700
000000
000000
000000
000000
000000
000000
000000
000000
000000
000000
000000
000000
000000
000000
000000
000000
000000
000000
000000
000000
000000
000000
000000
000000
000000
000000
000000
000000
000000
000000
ENDCHAR

STARTCHAR space
ENCODING 160
SWIDTH 568 0
DWIDTH 22 0
BBX 22 40 0 -10
BITMAP
000000
000000
000000
000000
000000
000000
000000
000000
000000
000000
000000
000000
000000
000000
000000
000000
000000
000000
000000
000000
000000
000000
000000
000000
000000
000000
000000
000000
000000
000000
000000
000000
000000
000000
000000
000000
000000
000000
000000
000000
ENDCHAR

STARTCHAR Aogonek
ENCODING 161
SWIDTH 568 0
DWIDTH 22 0
BBX 22 40 0 -10
BITMAP
000000
000000
000000
000000
000000
000000
000000
000000
00FC00
00FC00
01FE00
01FE00
01CE00
03CF00
03CF00
03CF00
078780
078780
078780
0F03C0
0F03C0
0F03C0
1FFFE0
1FFFE0
1E01E0
3C00F0
3C00F0
3C00F0
FF03FC
FF03FC
0001C0
0001C0
0001C0
0000F8
00007C
000000
000000
000000
000000
000000
ENDCHAR

STARTCHAR afii240
ENCODING 162
SWIDTH 568 0
DWIDTH 22 0
BBX 22 40 0 -10
BITMAP
000000
000000
000000
000000
000000
000000
000000
000000
000000
000000
000000
000000
000000
3FEFF8
3FEFF8
078780
078F00
079E00
07BC00
07F000
07F800
07FC00
079E00
078F00
078780
0783C0
0783C0
0781E0
3FE1F8
3FE0F8
000000
000000
000000
000000
000000
000000
000000
000000
000000
000000
ENDCHAR

STARTCHAR Rcommaaccent
ENCODING 163
SWIDTH 568 0
DWIDTH 22 0
BBX 22 40 0 -10
BITMAP
000000
000000
000000
000000
000000
000000
000000
000000
7FFF80
7FFFC0
1E03E0
1E01E0
1E01E0
1E01E0
1E01E0
1E01E0
1E03C0
1E07C0
1FFF80
1FFF00
1E0F00
1E0F80
1E07C0
1E07C0
1E03E0
1E03E0
1E01F0
1E01F0
7F80F8
7F80F8
000000
007C00
00FE00
00FE00
007E00
003C00
007C00
00F800
000000
000000
ENDCHAR

STARTCHAR currency
ENCODING 164
SWIDTH 568 0
DWIDTH 22 0
BBX 22 40 0 -10
BITMAP
000000
000000
000000
000000
000000
000000
000000
000000
000000
000000
000000
000000
700038
780078
3CFCF0
1FFFE0
0F87C0
070380
060180
060180
060180
060180
070380
0F87C0
1FFFE0
3CFCF0
780078
700038
000000
000000
000000
000000
000000
000000
000000
000000
000000
000000
000000
000000
ENDCHAR

STARTCHAR Itilde
ENCODING 165
SWIDTH 568 0
DWIDTH 22 0
BBX 22 40 0 -10
BITMAP
000000
000000
000000
07F060
0FFC60
187FC0
181F80
000000
1FFFE0
1FFFE0
007800
007800
007800
007800
007800
007800
007800
007800
007800
007800
007800
007800
007800
007800
007800
007800
007800
007800
1FFFE0
1FFFE0
000000
000000
000000
000000
000000
000000
000000
000000
000000
000000
ENDCHAR

STARTCHAR Lcommaaccent
ENCODING 166
SWIDTH 568 0
DWIDTH 22 0
BBX 22 40 0 -10
BITMAP
000000
000000
000000
000000
000000
000000
000000
000000
3FFC00
3FFC00
03C000
03C000
03C000
03C000
03C000
03C000
03C000
03C000
03C000
03C000
03C000
03C000
03C030
03C030
03C030
03C030
03C030
03C030
3FFFF0
3FFFF0
000000
001F00
003F80
003F80
001F80
000F00
001F00
003E00
007C00
000000
ENDCHAR

STARTCHAR section
ENCODING 167
SWIDTH 568 0
DWIDTH 22 0
BBX 22 40 0 -10
BITMAP
000000
000000
000000
000000
000000
000000
000000
000000
01FFC0
07FFC0
0703C0
0E03C0
0E03C0
0F03C0
1F8000
3FC000
39F000
38F800
383E00
3C1F00
1E0780
1F03C0
07C1E0
03E0F0
00F870
007C70
001E70
000F70
0F07E0
0F03E0
0F03C0
0F03C0
0FFF80
0FFF00
000000
000000
000000
000000
000000
000000
ENDCHAR

STARTCHAR hungarumlaut
ENCODING 168
SWIDTH 568 0
DWIDTH 22 0
BBX 22 40 0 -10
BITMAP
000000
000000
000000
000000
000000
01F9F8
03F3F0
07C7C0
0F8F80
1E1E00
3C3C00
000000
000000
000000
000000
000000
000000
000000
000000
000000
000000
000000
000000
000000
000000
000000
000000
000000
000000
000000
000000
000000
000000
000000
000000
000000
000000
000000
000000
000000
ENDCHAR

STARTCHAR Scaron
ENCODING 169
SWIDTH 568 0
DWIDTH 22 0
BBX 22 40 0 -10
BITMAP
000000
000000
000000
0F0F00
079E00
03FC00
01F800
000000
01F9E0
07FDE0
0F8FE0
0F03E0
1E01E0
1E01E0
1E0000
1F0000
0FC000
0FF800
03FF00
007FC0
000FC0
0003E0
0001E0
0001E0
1E01E0
1E01E0
1F03C0
1F87C0
1EFF80
1E7E00
000000
000000
000000
000000
000000
000000
000000
000000
000000
000000
ENDCHAR

STARTCHAR Emacron
ENCODING 170
SWIDTH 568 0
DWIDTH 22 0
BBX 22 40 0 -10
BITMAP
000000
000000
000000
000000
000000
07FFE0
07FFE0
000000
3FFFF0
3FFFF0
03C030
03C030
03C030
03C030
03C300
03C300
03C300
03C300
03FF00
03FF00
03C300
03C300
03C030
03C030
03C030
03C030
03C030
03C030
3FFFF0
3FFFF0
000000
000000
000000
000000
000000
000000
000000
000000
000000
000000
ENDCHAR

STARTCHAR Gcommaaccent
ENCODING 171
SWIDTH 568 0
DWIDTH 22 0
BBX 22 40 0 -10
BITMAP
000000
000000
000000
000000
000000
000000
000000
000000
01FC60
07FF60
1F87E0
1E01E0
3C01E0
3C00E0
3800E0
7800E0
780000
780000
780000
780000
781FF8
781FF8
7801E0
3801E0
3C01E0
3C01E0
1E01E0
1F81E0
07FFC0
01FF80
000000
007C00
00FE00
00FE00
007E00
003C00
007800
00F000
000000
000000
ENDCHAR

STARTCHAR afii237
ENCODING 172
SWIDTH 568 0
DWIDTH 22 0
BBX 22 40 0 -10
BITMAP
000000
000000
000000
000000
000000
000000
000000
000000
7FFFF8
7FFFF8
607818
607818
607818
607818
607818
607818
607818
607818
007800
1FFFE0
1FFFE0
007800
007800
007800
007800
007800
007800
007800
07FF80
07FF80
000000
000000
000000
000000
000000
000000
000000
000000
000000
000000
ENDCHAR

STARTCHAR hyphen
ENCODING 173
SWIDTH 568 0
DWIDTH 22 0
BBX 22 40 0 -10
BITMAP
000000
000000
000000
000000
000000
000000
000000
000000
000000
000000
000000
000000
000000
000000
000000
000000
000000
000000
000000
000000
3FFFF0
3FFFF0
000000
000000
000000
000000
000000
000000
000000
000000
000000
000000
000000
000000
000000
000000
000000
000000
000000
000000
ENDCHAR

STARTCHAR Zcaron
ENCODING 174
SWIDTH 568 0
DWIDTH 22 0
BBX 22 40 0 -10
BITMAP
000000
000000
000000
078780
03CF00
01FE00
00FC00
000000
1FFFE0
1FFFE0
1803E0
1803C0
1807C0
180F80
000F00
001F00
001E00
003E00
007C00
007800
00F800
01F000
01E000
03E000
07C060
078060
0F8060
1F0060
1FFFE0
1FFFE0
000000
000000
000000
000000
000000
000000
000000
000000
000000
000000
ENDCHAR

STARTCHAR macron
ENCODING 175
SWIDTH 568 0
DWIDTH 22 0
BBX 22 40 0 -10
BITMAP
000000
000000
000000
000000
000000
000000
0FFFC0
0FFFC0
000000
000000
000000
000000
000000
000000
000000
000000
000000
000000
000000
000000
000000
000000
000000
000000
000000
000000
000000
000000
000000
000000
000000
000000
000000
000000
000000
000000
000000
000000
000000
000000
ENDCHAR

STARTCHAR degree
ENCODING 176
SWIDTH 568 0
DWIDTH 22 0
BBX 22 40 0 -10
BITMAP
000000
000000
000000
000000
01FE00
03FF00
078780
070380
070380
070380
070380
070380
070380
078780
03FF00
01FE00
000000
000000
000000
000000
000000
000000
000000
000000
000000
000000
000000
000000
000000
000000
000000
000000
000000
000000
000000
000000
000000
000000
000000
000000
ENDCHAR

STARTCHAR aogonek
ENCODING 177
SWIDTH 568 0
DWIDTH 22 0
BBX 22 40 0 -10
BITMAP
000000
000000
000000
000000
000000
000000
000000
000000
000000
000000
000000
000000
03FF80
07FF80
0F03C0
0E03C0
0003C0
0003C0
03FFC0
0FFFC0
1F03C0
1E03C0
3C03C0
3C03C0
3C03C0
3C03C0
3C07C0
1E1FC0
1FFBF0
07E3F0
000380
000380
000380
0001F8
0000F0
000000
000000
000000
000000
000000
ENDCHAR

STARTCHAR ogonek
ENCODING 178
SWIDTH 568 0
DWIDTH 22 0
BBX 22 40 0 -10
BITMAP
000000
000000
000000
000000
000000
000000
000000
000000
000000
000000
000000
000000
000000
000000
000000
000000
000000
000000
000000
000000
000000
000000
000000
000000
000000
000000
000000
000000
000000
000000
00E000
00E000
00E000
007E00
003C00
000000
000000
000000
000000
000000
ENDCHAR

STARTCHAR rcommaaccent
ENCODING 179
SWIDTH 568 0
DWIDTH 22 0
BBX 22 40 0 -10
BITMAP
000000
000000
000000
000000
000000
000000
000000
000000
000000
000000
000000
000000
3FC7E0
3FDFF0
03F8F0
03E0F0
03C000
03C000
03C000
03C000
03C000
03C000
03C000
03C000
03C000
03C000
03C000
03C000
3FFF00
3FFF00
000000
03E000
07F000
07F000
03F000
01E000
03C000
078000
000000
000000
ENDCHAR

STARTCHAR acute
ENCODING 180
SWIDTH 568 0
DWIDTH 22 0
BBX 22 40 0 -10
BITMAP
000000
000000
000000
000000
000C00
001F00
003E00
007C00
00F000
03E000
00C000
000000
000000
000000
000000
000000
000000
000000
000000
000000
000000
000000
000000
000000
000000
000000
000000
000000
000000
000000
000000
000000
000000
000000
000000
000000
000000
000000
000000
000000
ENDCHAR

STARTCHAR itilde
ENCODING 181
SWIDTH 568 0
DWIDTH 22 0
BBX 22 40 0 -10
BITMAP
000000
000000
000000
000000
000000
000000
000000
000000
0FC0C0
1FF0C0
30FF80
303F00
000000
07F800
07F800
007800
007800
007800
007800
007800
007800
007800
007800
007800
007800
007800
007800
007800
1FFFE0
1FFFE0
000000
000000
000000
000000
000000
000000
000000
000000
000000
000000
ENDCHAR

STARTCHAR lcommaaccent
ENCODING 182
SWIDTH 568 0
DWIDTH 22 0
BBX 22 40 0 -10
BITMAP
000000
000000
000000
000000
000000
000000
0FF000
0FF000
00F000
00F000
00F000
00F000
00F000
00F000
00F000
00F000
00F000
00F000
00F000
00F000
00F000
00F000
00F000
00F000
00F000
00F000
00F000
00F000
3FFFE0
3FFFE0
000000
01F000
03F800
03F800
01F800
00F000
03E000
03C000
000000
000000
ENDCHAR

STARTCHAR caron
ENCODING 183
SWIDTH 568 0
DWIDTH 22 0
BBX 22 40 0 -10
BITMAP
000000
000000
000000
000000
000000
000000
078780
03CF00
01FE00
00FC00
000000
000000
000000
000000
000000
000000
000000
000000
000000
000000
000000
000000
000000
000000
000000
000000
000000
000000
000000
000000
000000
000000
000000
000000
000000
000000
000000
000000
000000
000000
ENDCHAR

STARTCHAR commaaccent
ENCODING 184
SWIDTH 568 0
DWIDTH 22 0
BBX 22 40 0 -10
BITMAP
000000
000000
000000
000000
000000
000000
000000
000000
000000
000000
000000
000000
000000
000000
000000
000000
000000
000000
000000
000000
000000
000000
000000
000000
000000
000000
000000
000000
000000
000000
00F800
01FC00
01FC00
00FC00
007800
00F800
01F000
03E000
000000
000000
ENDCHAR

STARTCHAR scaron
ENCODING 185
SWIDTH 568 0
DWIDTH 22 0
BBX 22 40 0 -10
BITMAP
000000
000000
000000
000000
000000
000000
000000
078780
03CF00
01FE00
00FC00
000000
03F9E0
0FFDE0
0F07E0
1E03E0
1E01E0
1E01E0
1E0000
1F8000
0FFF80
07FFC0
0007E0
0001E0
1E01E0
1E01E0
1F01E0
1F83C0
1EFF80
1E7E00
000000
000000
000000
000000
000000
000000
000000
000000
000000
000000
ENDCHAR

STARTCHAR emacron
ENCODING 186
SWIDTH 568 0
DWIDTH 22 0
BBX 22 40 0 -10
BITMAP
000000
000000
000000
000000
000000
000000
000000
000000
000000
07FFE0
07FFE0
000000
01FE00
07FF80
0F87C0
1F01E0
1E01E0
3E00F0
3C00F0
3C00F0
3FFFF0
3FFFF0
3C0000
3C0000
3E0000
1E0000
1F0070
0FC1F0
07FFC0
01FF00
000000
000000
000000
000000
000000
000000
000000
000000
000000
000000
ENDCHAR

STARTCHAR gcommaaccent
ENCODING 187
SWIDTH 568 0
DWIDTH 22 0
BBX 22 40 0 -10
BITMAP
000000
000000
000000
00F000
01E000
03C000
07E000
07F000
07F000
03E000
000000
000000
03F3F0
0FFBF0
1F0FC0
1E07C0
3E03C0
3C03C0
3C03C0
3C03C0
3C03C0
3C03C0
3C03C0
3C03C0
3C03C0
3E03C0
1E07C0
1F0FC0
0FFBC0
07F3C0
0003C0
0003C0
0003C0
0003C0
3FFF80
3FFF00
000000
000000
000000
000000
ENDCHAR

STARTCHAR afii253
ENCODING 188
SWIDTH 568 0
DWIDTH 22 0
BBX 22 40 0 -10
BITMAP
000000
000000
000000
000000
000000
000000
03C000
03C000
03C000
03C000
03C000
03C000
3FFFC0
3FFFC0
03C000
03C000
03C000
3FFFC0
3FFFC0
03C000
03C000
03C000
03C000
03C000
03C000
03C000
03C070
03E1F0
01FFC0
00FF00
000000
000000
000000
000000
000000
000000
000000
000000
000000
000000
ENDCHAR

STARTCHAR afii238
ENCODING 189
SWIDTH 568 0
DWIDTH 22 0
BBX 22 40 0 -10
BITMAP
000000
000000
000000
000000
000000
000000
000000
001F80
3F7FE0
0FF0F0
0FC078
0F8078
0F003C
0F003C
0F003C
0F003C
0F003C
0F003C
0F003C
0F003C
0F003C
0F003C
0F003C
0F003C
0F0038
0F0038
0F0078
0F1C78
3FDFF0
3FC7C0
000000
000000
000000
000000
000000
000000
000000
000000
000000
000000
ENDCHAR

STARTCHAR zcaron
ENCODING 190
SWIDTH 568 0
DWIDTH 22 0
BBX 22 40 0 -10
BITMAP
000000
000000
000000
000000
000000
000000
000000
03C3C0
01E780
00FF00
007E00
000000
0FFFC0
0FFFC0
0C03C0
0C03C0
0C0780
0C0F80
001F00
001E00
003C00
007800
00F800
00F000
01E0C0
03C0C0
07C0C0
0F80C0
0FFFC0
0FFFC0
000000
000000
000000
000000
000000
000000
000000
000000
000000
000000
ENDCHAR

STARTCHAR afii254
ENCODING 191
SWIDTH 568 0
DWIDTH 22 0
BBX 22 40 0 -10
BITMAP
000000
000000
000000
000000
000000
000000
000000
000000
000000
000000
000000
000000
000000
1FBF80
1FFFE0
07E0F0
07C0F8
078078
078078
078078
078078
078078
078078
078078
078078
078078
078078
078078
3FF078
3FE078
000078
000078
000078
0000F0
0001F0
007FE0
007F80
000000
000000
000000
ENDCHAR

STARTCHAR Amacron
ENCODING 192
SWIDTH 568 0
DWIDTH 22 0
BBX 22 40 0 -10
BITMAP
000000
000000
000000
000000
000000
0FFFC0
0FFFC0
000000
00FC00
00FC00
01FE00
01FE00
01CE00
03CF00
03CF00
03CF00
078780
078780
078780
0F03C0
0F03C0
0F03C0
1FFFE0
1FFFE0
1E01E0
3C00F0
3C00F0
3C00F0
FF03FC
FF03FC
000000
000000
000000
000000
000000
000000
000000
000000
000000
000000
ENDCHAR

STARTCHAR Aacute
ENCODING 193
SWIDTH 568 0
DWIDTH 22 0
BBX 22 40 0 -10
BITMAP
000000
0001F8
0003F0
0007C0
000F80
001E00
003C00
000000
00FC00
00FC00
01FE00
01FE00
01CE00
03CF00
03CF00
03CF00
078780
078780
078780
0F03C0
0F03C0
0F03C0
1FFFE0
1FFFE0
1E01E0
3C00F0
3C00F0
3C00F0
FF03FC
FF03FC
000000
000000
000000
000000
000000
000000
000000
000000
000000
000000
ENDCHAR

STARTCHAR Acircumflex
ENCODING 194
SWIDTH 568 0
DWIDTH 22 0
BBX 22 40 0 -10
BITMAP
000000
000000
000000
00FC00
01FE00
03CF00
078780
000000
00FC00
00FC00
01FE00
01FE00
01CE00
03CF00
03CF00
03CF00
078780
078780
078780
0F03C0
0F03C0
0F03C0
1FFFE0
1FFFE0
1E01E0
3C00F0
3C00F0
3C00F0
FF03FC
FF03FC
000000
000000
000000
000000
000000
000000
000000
000000
000000
000000
ENDCHAR

STARTCHAR Atilde
ENCODING 195
SWIDTH 568 0
DWIDTH 22 0
BBX 22 40 0 -10
BITMAP
000000
000000
000000
07E060
0FF860
187FC0
181F80
000000
00FC00
00FC00
01FE00
01FE00
01CE00
03CF00
03CF00
03CF00
078780
078780
078780
0F03C0
0F03C0
0F03C0
1FFFE0
1FFFE0
1E01E0
3C00F0
3C00F0
3C00F0
FF03FC
FF03FC
000000
000000
000000
000000
000000
000000
000000
000000
000000
000000
ENDCHAR

STARTCHAR Adieresis
ENCODING 196
SWIDTH 568 0
DWIDTH 22 0
BBX 22 40 0 -10
BITMAP
000000
000000
000000
0F03C0
1F87E0
1F87E0
0F03C0
000000
00FC00
00FC00
01FE00
01FE00
01CE00
03CF00
03CF00
03CF00
078780
078780
078780
0F03C0
0F03C0
0F03C0
1FFFE0
1FFFE0
1E01E0
3C00F0
3C00F0
3C00F0
FF03FC
FF03FC
000000
000000
000000
000000
000000
000000
000000
000000
000000
000000
ENDCHAR

STARTCHAR Aring
ENCODING 197
SWIDTH 568 0
DWIDTH 22 0
BBX 22 40 0 -10
BITMAP
000000
000000
000000
007800
00CC00
00CC00
007800
000000
00FC00
00FC00
01FE00
01FE00
01CE00
03CF00
03CF00
03CF00
078780
078780
078780
0F03C0
0F03C0
0F03C0
1FFFE0
1FFFE0
1E01E0
3C00F0
3C00F0
3C00F0
FF03FC
FF03FC
000000
000000
000000
000000
000000
000000
000000
000000
000000
000000
ENDCHAR

STARTCHAR AE
ENCODING 198
SWIDTH 568 0
DWIDTH 22 0
BBX 22 40 0 -10
BITMAP
000000
000000
000000
000000
000000
000000
000000
000000
03FFFC
03FFFC
03FC0C
033C0C
073C0C
073C0C
073C0C
073CCC
0E3CC0
0E3CC0
0E3FC0
0E3FC0
1C3CC0
1C3CC0
1FFC0C
1FFC0C
383C0C
383C0C
383C0C
383C0C
FCFFFC
FCFFFC
000000
000000
000000
000000
000000
000000
000000
000000
000000
000000
ENDCHAR

STARTCHAR Iogonek
ENCODING 199
SWIDTH 568 0
DWIDTH 22 0
BBX 22 40 0 -10
BITMAP
000000
000000
000000
000000
000000
000000
000000
000000
1FFFE0
1FFFE0
007800
007800
007800
007800
007800
007800
007800
007800
007800
007800
007800
007800
007800
007800
007800
007800
007800
007800
1FFFE0
1FFFE0
007000
007000
007000
003F00
001E00
000000
000000
000000
000000
000000
ENDCHAR

STARTCHAR Ccaron
ENCODING 200
SWIDTH 568 0
DWIDTH 22 0
BBX 22 40 0 -10
BITMAP
000000
000000
000000
03C3C0
01E780
00FF00
007E00
000000
00FE30
03FFB0
0FC3F0
0F00F0
1E00F0
1E0070
1C0070
3C0070
3C0000
3C0000
3C0000
3C0000
3C0000
3C0000
3C0000
1C0000
1E0000
1E0030
0F0070
0FC1E0
03FFC0
00FF00
000000
000000
000000
000000
000000
000000
000000
000000
000000
000000
ENDCHAR

STARTCHAR Eacute
ENCODING 201
SWIDTH 568 0
DWIDTH 22 0
BBX 22 40 0 -10
BITMAP
000000
0000FC
0001F8
0003E0
0007C0
000F00
001E00
000000
3FFFF0
3FFFF0
03C030
03C030
03C030
03C030
03C300
03C300
03C300
03C300
03FF00
03FF00
03C300
03C300
03C030
03C030
03C030
03C030
03C030
03C030
3FFFF0
3FFFF0
000000
000000
000000
000000
000000
000000
000000
000000
000000
000000
ENDCHAR

STARTCHAR Eogonek
ENCODING 202
SWIDTH 568 0
DWIDTH 22 0
BBX 22 40 0 -10
BITMAP
000000
000000
000000
000000
000000
000000
000000
000000
3FFFF0
3FFFF0
03C030
03C030
03C030
03C030
03C300
03C300
03C300
03C300
03FF00
03FF00
03C300
03C300
03C030
03C030
03C030
03C030
03C030
03C030
3FFFF0
3FFFF0
000E00
000E00
000E00
0007E0
0003C0
000000
000000
000000
000000
000000
ENDCHAR

STARTCHAR Edieresis
ENCODING 203
SWIDTH 568 0
DWIDTH 22 0
BBX 22 40 0 -10
BITMAP
000000
000000
000000
03C0F0
07E1F8
07E1F8
03C0F0
000000
3FFFF0
3FFFF0
03C030
03C030
03C030
03C030
03C300
03C300
03C300
03C300
03FF00
03FF00
03C300
03C300
03C030
03C030
03C030
03C030
03C030
03C030
3FFFF0
3FFFF0
000000
000000
000000
000000
000000
000000
000000
000000
000000
000000
ENDCHAR

STARTCHAR Edotaccent
ENCODING 204
SWIDTH 568 0
DWIDTH 22 0
BBX 22 40 0 -10
BITMAP
000000
000000
000000
001E00
003F00
003F00
001E00
000000
3FFFF0
3FFFF0
03C030
03C030
03C030
03C030
03C300
03C300
03C300
03C300
03FF00
03FF00
03C300
03C300
03C030
03C030
03C030
03C030
03C030
03C030
3FFFF0
3FFFF0
000000
000000
000000
000000
000000
000000
000000
000000
000000
000000
ENDCHAR

STARTCHAR Iacute
ENCODING 205
SWIDTH 568 0
DWIDTH 22 0
BBX 22 40 0 -10
BITMAP
000000
0003F0
0007E0
000F80
001F00
003C00
007800
000000
1FFFE0
1FFFE0
007800
007800
007800
007800
007800
007800
007800
007800
007800
007800
007800
007800
007800
007800
007800
007800
007800
007800
1FFFE0
1FFFE0
000000
000000
000000
000000
000000
000000
000000
000000
000000
000000
ENDCHAR

STARTCHAR Icircumflex
ENCODING 206
SWIDTH 568 0
DWIDTH 22 0
BBX 22 40 0 -10
BITMAP
000000
000000
000000
00FC00
01FE00
03CF00
078780
000000
1FFFE0
1FFFE0
007800
007800
007800
007800
007800
007800
007800
007800
007800
007800
007800
007800
007800
007800
007800
007800
007800
007800
1FFFE0
1FFFE0
000000
000000
000000
000000
000000
000000
000000
000000
000000
000000
ENDCHAR

STARTCHAR Imacron
ENCODING 207
SWIDTH 568 0
DWIDTH 22 0
BBX 22 40 0 -10
BITMAP
000000
000000
000000
000000
000000
0FFFC0
0FFFC0
000000
1FFFE0
1FFFE0
007800
007800
007800
007800
007800
007800
007800
007800
007800
007800
007800
007800
007800
007800
007800
007800
007800
007800
1FFFE0
1FFFE0
000000
000000
000000
000000
000000
000000
000000
000000
000000
000000
ENDCHAR

STARTCHAR Eth
ENCODING 208
SWIDTH 568 0
DWIDTH 22 0
BBX 22 40 0 -10
BITMAP
000000
000000
000000
000000
000000
000000
000000
000000
3FFC00
3FFF00
0F0FC0
0F03C0
0F01E0
0F01E0
0F00F0
0F00F0
0F00F0
3FF0F0
3FF0F0
0F00F0
0F00F0
0F00F0
0F00F0
0F00F0
0F01E0
0F01E0
0F03C0
0F0FC0
3FFF00
3FFC00
000000
000000
000000
000000
000000
000000
000000
000000
000000
000000
ENDCHAR

STARTCHAR Ncommaaccent
ENCODING 209
SWIDTH 568 0
DWIDTH 22 0
BBX 22 40 0 -10
BITMAP
000000
000000
000000
000000
000000
000000
000000
000000
7F07F8
7F07F8
1F81E0
1F81E0
1EC1E0
1EC1E0
1E61E0
1E61E0
1E61E0
1E31E0
1E31E0
1E19E0
1E19E0
1E19E0
1E0DE0
1E0DE0
1E07E0
1E07E0
1E03E0
1E03E0
7F81E0
7F81E0
000000
00F800
01FC00
01FC00
00FC00
007800
00F000
01E000
000000
000000
ENDCHAR

STARTCHAR Omacron
ENCODING 210
SWIDTH 568 0
DWIDTH 22 0
BBX 22 40 0 -10
BITMAP
000000
000000
000000
000000
000000
07FFE0
07FFE0
000000
01FE00
03FF00
0F87C0
0F03C0
1E01E0
1E01E0
1E01E0
3C00F0
3C00F0
3C00F0
3C00F0
3C00F0
3C00F0
3C00F0
3C00F0
1E01E0
1E01E0
1E01E0
0F03C0
0F87C0
03FF00
01FE00
000000
000000
000000
000000
000000
000000
000000
000000
000000
000000
ENDCHAR

STARTCHAR Kcommaaccent
ENCODING 211
SWIDTH 568 0
DWIDTH 22 0
BBX 22 40 0 -10
BITMAP
000000
000000
000000
000000
000000
000000
000000
000000
3FCFF0
3FCFF0
0F03C0
0F03C0
0F0F00
0F0F00
0F3C00
0F3C00
0FF800
0FF800
0FFC00
0FFC00
0F1E00
0F1E00
0F0F00
0F0F00
0F0780
0F0780
0F03C0
0F03C0
3FC3F0
3FC3F0
000000
007C00
00FE00
00FE00
007E00
003C00
007800
00F000
000000
000000
ENDCHAR

STARTCHAR Ocircumflex
ENCODING 212
SWIDTH 568 0
DWIDTH 22 0
BBX 22 40 0 -10
BITMAP
000000
000000
000000
00FC00
01FE00
03CF00
078780
000000
01FE00
03FF00
0F87C0
0F03C0
1E01E0
1E01E0
1E01E0
3C00F0
3C00F0
3C00F0
3C00F0
3C00F0
3C00F0
3C00F0
3C00F0
1E01E0
1E01E0
1E01E0
0F03C0
0F87C0
03FF00
01FE00
000000
000000
000000
000000
000000
000000
000000
000000
000000
000000
ENDCHAR

STARTCHAR Otilde
ENCODING 213
SWIDTH 568 0
DWIDTH 22 0
BBX 22 40 0 -10
BITMAP
000000
000000
000000
07E060
0FF860
187FC0
181F80
000000
01FE00
03FF00
0F87C0
0F03C0
1E01E0
1E01E0
1E01E0
3C00F0
3C00F0
3C00F0
3C00F0
3C00F0
3C00F0
3C00F0
3C00F0
1E01E0
1E01E0
1E01E0
0F03C0
0F87C0
03FF00
01FE00
000000
000000
000000
000000
000000
000000
000000
000000
000000
000000
ENDCHAR

STARTCHAR Odieresis
ENCODING 214
SWIDTH 568 0
DWIDTH 22 0
BBX 22 40 0 -10
BITMAP
000000
000000
000000
0F03C0
1F87E0
1F87E0
0F03C0
000000
01FE00
03FF00
0F87C0
0F03C0
1E01E0
1E01E0
1E01E0
3C00F0
3C00F0
3C00F0
3C00F0
3C00F0
3C00F0
3C00F0
3C00F0
1E01E0
1E01E0
1E01E0
0F03C0
0F87C0
03FF00
01FE00
000000
000000
000000
000000
000000
000000
000000
000000
000000
000000
ENDCHAR

STARTCHAR multiply
ENCODING 215
SWIDTH 568 0
DWIDTH 22 0
BBX 22 40 0 -10
BITMAP
000000
000000
000000
000000
000000
000000
000000
000000
000000
000000
000000
000000
1C00E0
1E01E0
0F03C0
078780
03CF00
01FE00
00FC00
007800
007800
00FC00
01FE00
03CF00
078780
0F03C0
1E01E0
1C00E0
000000
000000
000000
000000
000000
000000
000000
000000
000000
000000
000000
000000
ENDCHAR

STARTCHAR Oslash
ENCODING 216
SWIDTH 568 0
DWIDTH 22 0
BBX 22 40 0 -10
BITMAP
000000
000000
000000
000000
000000
000000
000000
000060
01FEE0
03FFC0
0F87C0
0F07C0
1E0FE0
1E1DE0
1E1DE0
3C38F0
3C38F0
3C38F0
3C70F0
3C70F0
3C70F0
3CE0F0
3CE0F0
1FC1E0
1FC1E0
1F81E0
0F03C0
0F87C0
1FFF00
39FE00
000000
000000
000000
000000
000000
000000
000000
000000
000000
000000
ENDCHAR

STARTCHAR Uogonek
ENCODING 217
SWIDTH 568 0
DWIDTH 22 0
BBX 22 40 0 -10
BITMAP
000000
000000
000000
000000
000000
000000
000000
000000
7F87F8
7F87F8
1E01E0
1E01E0
1E01E0
1E01E0
1E01E0
1E01E0
1E01E0
1E01E0
1E01E0
1E01E0
1E01E0
1E01E0
1E01E0
1E01E0
1E01E0
1E01E0
0E01C0
0F03C0
07FF80
03FF00
007000
007000
007000
003F00
001E00
000000
000000
000000
000000
000000
ENDCHAR

STARTCHAR Uacute
ENCODING 218
SWIDTH 568 0
DWIDTH 22 0
BBX 22 40 0 -10
BITMAP
001E00
007C00
00F800
01F000
03E000
008000
000000
3C00F0
3C00F0
3C00F0
3C00F0
3C00F0
3C00F0
3C00F0
3C00F0
3C00F0
3C00F0
3C00F0
3C00F0
3C00F0
3C00F0
3C00F0
3C00F0
3C00F0
3E00F0
1E01E0
0F03E0
0F87C0
03FF00
00FC00
000000
000000
000000
000000
000000
000000
000000
000000
000000
000000
ENDCHAR

STARTCHAR Ucircumflex
ENCODING 219
SWIDTH 568 0
DWIDTH 22 0
BBX 22 40 0 -10
BITMAP
007800
01FE00
03EF00
0F87C0
070380
000000
000000
3C00F0
3C00F0
3C00F0
3C00F0
3C00F0
3C00F0
3C00F0
3C00F0
3C00F0
3C00F0
3C00F0
3C00F0
3C00F0
3C00F0
3C00F0
3C00F0
3C00F0
3E00F0
1E01E0
0F03E0
0F87C0
03FF00
00FC00
000000
000000
000000
000000
000000
000000
000000
000000
000000
000000
ENDCHAR

STARTCHAR Udieresis
ENCODING 220
SWIDTH 568 0
DWIDTH 22 0
BBX 22 40 0 -10
BITMAP
000000
07C7C0
07C7C0
07C7C0
000000
000000
000000
1E00F0
1E00F0
1E00F0
1E00F0
1E00F0
1E00F0
1E00F0
1E00F0
1E00F0
1E00F0
1E00F0
1E00F0
1E00F0
1E00F0
1E00F0
1E00F0
1E00F0
1E00F0
0F01E0
0F83E0
07C7C0
01FF80
007E00
000000
000000
000000
000000
000000
000000
000000
000000
000000
000000
ENDCHAR

STARTCHAR Utilde
ENCODING 221
SWIDTH 568 0
DWIDTH 22 0
BBX 22 40 0 -10
BITMAP
000000
000000
03F030
07FC30
0C3FE0
0C0FC0
000000
1E00F0
1E00F0
1E00F0
1E00F0
1E00F0
1E00F0
1E00F0
1E00F0
1E00F0
1E00F0
1E00F0
1E00F0
1E00F0
1E00F0
1E00F0
1E00F0
1E00F0
1E00F0
0F01E0
0F83E0
07C7C0
01FF80
007E00
000000
000000
000000
000000
000000
000000
000000
000000
000000
000000
ENDCHAR

STARTCHAR Umacron
ENCODING 222
SWIDTH 568 0
DWIDTH 22 0
BBX 22 40 0 -10
BITMAP
000000
000000
000000
000000
07FFE0
07FFE0
000000
1E00F0
1E00F0
1E00F0
1E00F0
1E00F0
1E00F0
1E00F0
1E00F0
1E00F0
1E00F0
1E00F0
1E00F0
1E00F0
1E00F0
1E00F0
1E00F0
1E00F0
1E00F0
0F01E0
0F83E0
07C7C0
01FF80
007E00
000000
000000
000000
000000
000000
000000
000000
000000
000000
000000
ENDCHAR

STARTCHAR germandbls
ENCODING 223
SWIDTH 568 0
DWIDTH 22 0
BBX 22 40 0 -10
BITMAP
000000
000000
000000
000000
000000
000000
07E000
1FF800
3E7C00
3C3C00
3C3C00
3C3C00
3C3C00
3C3800
3C7000
3CF000
7DE000
7DF000
3C7800
3C3C00
3C1C00
3C1E00
3C1E00
3C1E00
3C1E00
3C1E00
3C1E00
3D9C00
3DF800
3CF000
000000
000000
000000
000000
000000
000000
000000
000000
000000
000000
ENDCHAR

STARTCHAR amacron
ENCODING 224
SWIDTH 568 0
DWIDTH 22 0
BBX 22 40 0 -10
BITMAP
000000
000000
000000
000000
000000
000000
000000
000000
000000
0FFFC0
0FFFC0
000000
03FF80
07FF80
0F03C0
0E03C0
0003C0
0003C0
03FFC0
0FFFC0
1F03C0
1E03C0
3C03C0
3C03C0
3C03C0
3C03C0
3C07C0
1E1FC0
1FFBF0
07E3F0
000000
000000
000000
000000
000000
000000
000000
000000
000000
000000
ENDCHAR

STARTCHAR aacute
ENCODING 225
SWIDTH 568 0
DWIDTH 22 0
BBX 22 40 0 -10
BITMAP
000000
000000
000000
000000
000000
0007E0
000FC0
001F00
003E00
007800
00F000
000000
03FF80
07FF80
0F03C0
0E03C0
0003C0
0003C0
03FFC0
0FFFC0
1F03C0
1E03C0
3C03C0
3C03C0
3C03C0
3C03C0
3C07C0
1E1FC0
1FFBF0
07E3F0
000000
000000
000000
000000
000000
000000
000000
000000
000000
000000
ENDCHAR

STARTCHAR acircumflex
ENCODING 226
SWIDTH 568 0
DWIDTH 22 0
BBX 22 40 0 -10
BITMAP
000000
000000
000000
000000
000000
000000
000000
00FC00
01FE00
03CF00
078780
000000
03FF80
07FF80
0F03C0
0E03C0
0003C0
0003C0
03FFC0
0FFFC0
1F03C0
1E03C0
3C03C0
3C03C0
3C03C0
3C03C0
3C07C0
1E1FC0
1FFBF0
07E3F0
000000
000000
000000
000000
000000
000000
000000
000000
000000
000000
ENDCHAR

STARTCHAR atilde
ENCODING 227
SWIDTH 568 0
DWIDTH 22 0
BBX 22 40 0 -10
BITMAP
000000
000000
000000
000000
000000
000000
000000
07E060
0FF860
187FC0
181F80
000000
03FF80
07FF80
0F03C0
0E03C0
0003C0
0003C0
03FFC0
0FFFC0
1F03C0
1E03C0
3C03C0
3C03C0
3C03C0
3C03C0
3C07C0
1E1FC0
1FFBF0
07E3F0
000000
000000
000000
000000
000000
000000
000000
000000
000000
000000
ENDCHAR

STARTCHAR adieresis
ENCODING 228
SWIDTH 568 0
DWIDTH 22 0
BBX 22 40 0 -10
BITMAP
000000
000000
000000
000000
000000
000000
000000
0F03C0
1F87E0
1F87E0
0F03C0
000000
03FF80
07FF80
0F03C0
0E03C0
0003C0
0003C0
03FFC0
0FFFC0
1F03C0
1E03C0
3C03C0
3C03C0
3C03C0
3C03C0
3C07C0
1E1FC0
1FFBF0
07E3F0
000000
000000
000000
000000
000000
000000
000000
000000
000000
000000
ENDCHAR

STARTCHAR aring
ENCODING 229
SWIDTH 568 0
DWIDTH 22 0
BBX 22 40 0 -10
BITMAP
000000
000000
000000
000000
000000
000000
000000
007800
00CC00
00CC00
007800
000000
03FF80
07FF80
0F03C0
0E03C0
0003C0
0003C0
03FFC0
0FFFC0
1F03C0
1E03C0
3C03C0
3C03C0
3C03C0
3C03C0
3C07C0
1E1FC0
1FFBF0
07E3F0
000000
000000
000000
000000
000000
000000
000000
000000
000000
000000
ENDCHAR

STARTCHAR ae
ENCODING 230
SWIDTH 568 0
DWIDTH 22 0
BBX 22 40 0 -10
BITMAP
000000
000000
000000
000000
000000
000000
000000
000000
000000
000000
000000
000000
0FE7F0
1FFFF8
3C7C3C
38781C
00781C
00781C
0FFFFC
3FFFFC
787800
707800
E07800
E07800
E07800
E07C00
E07E1C
78FF3C
7FFFF8
1F7BF0
000000
000000
000000
000000
000000
000000
000000
000000
000000
000000
ENDCHAR

STARTCHAR iogonek
ENCODING 231
SWIDTH 570 0
DWIDTH 22 0
BBX 22 40 0 -10
BITMAP
000000
000000
000000
000000
000000
000000
000000
000000
000000
000000
000000
000000
000000
07F800
07F800
007800
007800
007800
007800
007800
007800
007800
007800
007800
007800
007800
007800
007800
1FFFE0
1FFFE0
007000
007000
007000
003F00
001E00
000000
000000
000000
000000
000000
ENDCHAR

STARTCHAR ccaron
ENCODING 232
SWIDTH 568 0
DWIDTH 22 0
BBX 22 40 0 -10
BITMAP
000000
000000
000000
000000
000000
000000
000000
03C3C0
01E780
00FF00
007E00
000000
00FE60
03FFE0
07C3E0
0F81E0
0F00E0
0F00E0
1E00E0
1E0000
1E0000
1E0000
1E0000
1E0000
0F0000
0F0060
0F80E0
07C3C0
01FF80
007E00
000000
000000
000000
000000
000000
000000
000000
000000
000000
000000
ENDCHAR

STARTCHAR eacute
ENCODING 233
SWIDTH 568 0
DWIDTH 22 0
BBX 22 40 0 -10
BITMAP
000000
000000
000000
000000
000000
0003F0
0007E0
000F80
001F00
003C00
007800
000000
01FE00
07FF80
0F87C0
1F01E0
1E01E0
3E00F0
3C00F0
3C00F0
3FFFF0
3FFFF0
3C0000
3C0000
3E0000
1E0000
1F0070
0FC1F0
07FFC0
01FF00
000000
000000
000000
000000
000000
000000
000000
000000
000000
000000
ENDCHAR

STARTCHAR eogonek
ENCODING 234
SWIDTH 568 0
DWIDTH 22 0
BBX 22 40 0 -10
BITMAP
000000
000000
000000
000000
000000
000000
000000
000000
000000
000000
000000
000000
01FE00
07FF80
0F87C0
1F01E0
1E01E0
3E00F0
3C00F0
3C00F0
3FFFF0
3FFFF0
3C0000
3C0000
3E0000
1E0000
1F0070
0FC1F0
07FFC0
01FF00
003800
003800
003800
001F80
000F00
000000
000000
000000
000000
000000
ENDCHAR

STARTCHAR edieresis
ENCODING 235
SWIDTH 568 0
DWIDTH 22 0
BBX 22 40 0 -10
BITMAP
000000
000000
000000
000000
000000
000000
000000
0F03C0
1F87E0
1F87E0
0F03C0
000000
01FE00
07FF80
0F87C0
1F01E0
1E01E0
3E00F0
3C00F0
3C00F0
3FFFF0
3FFFF0
3C0000
3C0000
3E0000
1E0000
1F0070
0FC1F0
07FFC0
01FF00
000000
000000
000000
000000
000000
000000
000000
000000
000000
000000
ENDCHAR

STARTCHAR edotaccent
ENCODING 236
SWIDTH 568 0
DWIDTH 22 0
BBX 22 40 0 -10
BITMAP
000000
000000
000000
000000
000000
000000
000000
007800
00FC00
00FC00
007800
000000
01FE00
07FF80
0F87C0
1F01E0
1E01E0
3E00F0
3C00F0
3C00F0
3FFFF0
3FFFF0
3C0000
3C0000
3E0000
1E0000
1F0070
0FC1F0
07FFC0
01FF00
000000
000000
000000
000000
000000
000000
000000
000000
000000
000000
ENDCHAR

STARTCHAR iacute
ENCODING 237
SWIDTH 568 0
DWIDTH 22 0
BBX 22 40 0 -10
BITMAP
000000
000000
000000
000000
000000
000000
000FC0
001F80
003E00
007C00
00F000
01E000
000000
07F800
07F800
007800
007800
007800
007800
007800
007800
007800
007800
007800
007800
007800
007800
007800
1FFFE0
1FFFE0
000000
000000
000000
000000
000000
000000
000000
000000
000000
000000
ENDCHAR

STARTCHAR icircumflex
ENCODING 238
SWIDTH 568 0
DWIDTH 22 0
BBX 22 40 0 -10
BITMAP
000000
000000
000000
000000
000000
000000
000000
000000
01F800
03FC00
079E00
0F0F00
000000
07F800
07F800
007800
007800
007800
007800
007800
007800
007800
007800
007800
007800
007800
007800
007800
1FFFE0
1FFFE0
000000
000000
000000
000000
000000
000000
000000
000000
000000
000000
ENDCHAR

STARTCHAR imacron
ENCODING 239
SWIDTH 568 0
DWIDTH 22 0
BBX 22 40 0 -10
BITMAP
000000
000000
000000
000000
000000
000000
000000
000000
000000
000000
0FFFC0
0FFFC0
000000
07F800
07F800
007800
007800
007800
007800
007800
007800
007800
007800
007800
007800
007800
007800
007800
1FFFE0
1FFFE0
000000
000000
000000
000000
000000
000000
000000
000000
000000
000000
ENDCHAR

STARTCHAR dcroat
ENCODING 240
SWIDTH 568 0
DWIDTH 22 0
BBX 22 40 0 -10
BITMAP
000000
000000
000000
000000
000000
000000
003FC0
003FC0
0003C0
003FF0
003FF0
0003C0
03F3C0
0FFBC0
1F0FC0
1E07C0
3E03C0
3C03C0
3C03C0
3C03C0
3C03C0
3C03C0
3C03C0
3C03C0
3C03C0
3E03C0
1E07C0
1F0FC0
0FFBF0
07F3F0
000000
000000
000000
000000
000000
000000
000000
000000
000000
000000
ENDCHAR

STARTCHAR ncommaaccent
ENCODING 241
SWIDTH 568 0
DWIDTH 22 0
BBX 22 40 0 -10
BITMAP
000000
000000
000000
000000
000000
000000
000000
000000
000000
000000
000000
3F3F00
3F7F80
0FC7C0
0F83C0
0F03C0
0F03C0
0F03C0
0F03C0
0F03C0
0F03C0
0F03C0
0F03C0
0F03C0
0F03C0
0F03C0
0F03C0
0F03C0
3F8FF0
3F8FF0
000000
00F800
01FC00
01FC00
00FC00
007800
00F000
01E000
000000
000000
ENDCHAR

STARTCHAR omacron
ENCODING 242
SWIDTH 568 0
DWIDTH 22 0
BBX 22 40 0 -10
BITMAP
000000
000000
000000
000000
000000
000000
000000
000000
000000
07FFE0
07FFE0
000000
01FE00
07FF80
0F87C0
1F03E0
1E01E0
1E01E0
3C00F0
3C00F0
3C00F0
3C00F0
3C00F0
3C00F0
1E01E0
1E01E0
1F03E0
0F87C0
07FF80
01FE00
000000
000000
000000
000000
000000
000000
000000
000000
000000
000000
ENDCHAR

STARTCHAR kcommaaccent
ENCODING 243
SWIDTH 568 0
DWIDTH 22 0
BBX 22 40 0 -10
BITMAP
000000
000000
000000
000000
000000
000000
3F0000
3F0000
0F0000
0F0000
0F0000
0F0000
0F1FF0
0F1FF0
0F03C0
0F0780
0F0F00
0F1E00
0F3C00
0F7C00
0FFC00
0FDE00
0F0E00
0F0F00
0F0700
0F0780
0F0380
0F03C0
3F0FF0
3F0FF0
000000
01F000
03F800
03F800
01F800
00F000
01E000
03C000
000000
000000
ENDCHAR

STARTCHAR ocircumflex
ENCODING 244
SWIDTH 568 0
DWIDTH 22 0
BBX 22 40 0 -10
BITMAP
000000
000000
000000
000000
000000
000000
000000
00FC00
01FE00
03CF00
078780
000000
01FE00
07FF80
0F87C0
1F03E0
1E01E0
1E01E0
3C00F0
3C00F0
3C00F0
3C00F0
3C00F0
3C00F0
1E01E0
1E01E0
1F03E0
0F87C0
07FF80
01FE00
000000
000000
000000
000000
000000
000000
000000
000000
000000
000000
ENDCHAR

STARTCHAR otilde
ENCODING 245
SWIDTH 568 0
DWIDTH 22 0
BBX 22 40 0 -10
BITMAP
000000
000000
000000
000000
000000
000000
000000
07E060
0FF860
187FC0
181F80
000000
01FE00
07FF80
0F87C0
1F03E0
1E01E0
1E01E0
3C00F0
3C00F0
3C00F0
3C00F0
3C00F0
3C00F0
1E01E0
1E01E0
1F03E0
0F87C0
07FF80
01FE00
000000
000000
000000
000000
000000
000000
000000
000000
000000
000000
ENDCHAR

STARTCHAR odieresis
ENCODING 246
SWIDTH 568 0
DWIDTH 22 0
BBX 22 40 0 -10
BITMAP
000000
000000
000000
000000
000000
000000
000000
0F03C0
1F87E0
1F87E0
0F03C0
000000
01FE00
07FF80
0F87C0
1F03E0
1E01E0
1E01E0
3C00F0
3C00F0
3C00F0
3C00F0
3C00F0
3C00F0
1E01E0
1E01E0
1F03E0
0F87C0
07FF80
01FE00
000000
000000
000000
000000
000000
000000
000000
000000
000000
000000
ENDCHAR

STARTCHAR divide
ENCODING 247
SWIDTH 568 0
DWIDTH 22 0
BBX 22 40 0 -10
BITMAP
000000
000000
000000
000000
000000
000000
000000
000000
000000
000000
000000
000000
003000
007800
007800
003000
000000
000000
1FFFE0
1FFFE0
1FFFE0
1FFFE0
000000
000000
003000
007800
007800
003000
000000
000000
000000
000000
000000
000000
000000
000000
000000
000000
000000
000000
ENDCHAR

STARTCHAR oslash
ENCODING 248
SWIDTH 568 0
DWIDTH 22 0
BBX 22 40 0 -10
BITMAP
000000
000000
000000
000000
000000
000000
000000
000000
000000
000000
000000
000070
01FFE0
07FFC0
0F87C0
1F07E0
1E0FE0
1E1DE0
3C38F0
3C38F0
3C70F0
3C70F0
3C70F0
3CE0F0
1EE1E0
1FE1E0
1FC3E0
0F87C0
1FFF80
39FE00
000000
000000
000000
000000
000000
000000
000000
000000
000000
000000
ENDCHAR

STARTCHAR uogonek
ENCODING 249
SWIDTH 568 0
DWIDTH 22 0
BBX 22 40 0 -10
BITMAP
000000
000000
000000
000000
000000
000000
000000
000000
000000
000000
000000
000000
3F0FC0
3F0FC0
0F03C0
0F03C0
0F03C0
0F03C0
0F03C0
0F03C0
0F03C0
0F03C0
0F03C0
0F03C0
0F03C0
0F03C0
0F07C0
0F8FC0
07FBF0
03F3F0
0001C0
0001C0
0001C0
0000FC
000078
000000
000000
000000
000000
000000
ENDCHAR

STARTCHAR uacute
ENCODING 250
SWIDTH 568 0
DWIDTH 22 0
BBX 22 40 0 -10
BITMAP
000000
000000
000000
000000
000000
000FC0
001F80
003E00
007C00
00F000
01E000
000000
3F0FC0
3F0FC0
0F03C0
0F03C0
0F03C0
0F03C0
0F03C0
0F03C0
0F03C0
0F03C0
0F03C0
0F03C0
0F03C0
0F03C0
0F07C0
0F8FC0
07FBF0
03F3F0
000000
000000
000000
000000
000000
000000
000000
000000
000000
000000
ENDCHAR

STARTCHAR ucircumflex
ENCODING 251
SWIDTH 568 0
DWIDTH 22 0
BBX 22 40 0 -10
BITMAP
000000
000000
000000
000000
000000
000000
000000
00FC00
01FE00
03CF00
078780
000000
3F0FC0
3F0FC0
0F03C0
0F03C0
0F03C0
0F03C0
0F03C0
0F03C0
0F03C0
0F03C0
0F03C0
0F03C0
0F03C0
0F03C0
0F07C0
0F8FC0
07FBF0
03F3F0
000000
000000
000000
000000
000000
000000
000000
000000
000000
000000
ENDCHAR

STARTCHAR udieresis
ENCODING 252
SWIDTH 568 0
DWIDTH 22 0
BBX 22 40 0 -10
BITMAP
000000
000000
000000
000000
000000
000000
000000
0F03C0
1F87E0
1F87E0
0F03C0
000000
3F0FC0
3F0FC0
0F03C0
0F03C0
0F03C0
0F03C0
0F03C0
0F03C0
0F03C0
0F03C0
0F03C0
0F03C0
0F03C0
0F03C0
0F07C0
0F8FC0
07FBF0
03F3F0
000000
000000
000000
000000
000000
000000
000000
000000
000000
000000
ENDCHAR

STARTCHAR utilde
ENCODING 253
SWIDTH 568 0
DWIDTH 22 0
BBX 22 40 0 -10
BITMAP
000000
000000
000000
000000
000000
000000
000000
0FC0C0
1FF0C0
30FF80
303F00
000000
3F0FC0
3F0FC0
0F03C0
0F03C0
0F03C0
0F03C0
0F03C0
0F03C0
0F03C0
0F03C0
0F03C0
0F03C0
0F03C0
0F03C0
0F07C0
0F8FC0
07FBF0
03F3F0
000000
000000
000000
000000
000000
000000
000000
000000
000000
000000
ENDCHAR

STARTCHAR umacron
ENCODING 254
SWIDTH 568 0
DWIDTH 22 0
BBX 22 40 0 -10
BITMAP
000000
000000
000000
000000
000000
000000
000000
000000
000000
1FFF80
1FFF80
000000
3F0FC0
3F0FC0
0F03C0
0F03C0
0F03C0
0F03C0
0F03C0
0F03C0
0F03C0
0F03C0
0F03C0
0F03C0
0F03C0
0F03C0
0F07C0
0F8FC0
07FBF0
03F3F0
000000
000000
000000
000000
000000
000000
000000
000000
000000
000000
ENDCHAR

STARTCHAR dotaccent
ENCODING 255
SWIDTH 568 0
DWIDTH 22 0
BBX 22 40 0 -10
BITMAP
000000
000000
000000
000000
000000
000000
007800
00FC00
00FC00
007800
000000
000000
000000
000000
000000
000000
000000
000000
000000
000000
000000
000000
000000
000000
000000
000000
000000
000000
000000
000000
000000
000000
000000
000000
000000
000000
000000
000000
000000
000000
ENDCHAR
ENDFONT
